<?xml version="1.0" standalone="no"?>
<!DOCTYPE svg PUBLIC "-//W3C//DTD SVG 1.1//EN" "http://www.w3.org/Graphics/SVG/1.1/DTD/svg11.dtd" >
<!--
2013-9-30: Created.
-->
<svg>
<metadata>
Created by iconfont
</metadata>
<defs>

<font id="iconfont" horiz-adv-x="1024" >
  <font-face
    font-family="iconfont"
    font-weight="500"
    font-stretch="normal"
    units-per-em="1024"
    ascent="896"
    descent="-128"
  />
    <missing-glyph />
    
    <glyph glyph-name="wifi" unicode="&#58880;" d="M976.319141 500.354008C860.134334 634.338558 690.533826 711.162248 510.941346 711.162248c-179.533125 0-349.162288-76.794014-465.346071-210.720236-10.747202-12.372795-9.497694-31.165814 2.788624-41.970904 12.286318-10.832719 30.993121-9.55461 41.680969 2.817162 104.973004 121.001865 258.394379 190.389188 420.876478 190.389188 162.513823 0 315.936221-69.416999 420.878524-190.417841 5.837178-6.738471 14.029079-10.194176 22.247588-10.194176 6.88611 0 13.826457 2.409886 19.403704 7.348362C985.758504 469.21787 987.036666 487.980189 976.319141 500.354008zM510.941346 544.270217c-134.86091 0-260.368417-59.542094-344.311617-163.319669-10.282602-12.750395-8.394525-31.485085 4.240755-41.853224 12.692587-10.426467 31.340036-8.422833 41.564308 4.270257 72.673067 89.864704 181.509211 141.41887 298.505532 141.41887 117.056699 0 225.862142-51.554166 298.507579-141.41887 5.838201-7.231705 14.348364-10.979052 22.945512-10.979052 6.535101 0 13.100903 2.177596 18.590142 6.680143 12.663933 10.368138 14.581687 29.101805 4.270432 41.823548C771.370141 484.728122 645.831933 544.270217 510.941346 544.270217zM510.941346 377.407861c-90.099663 0-173.60794-44.090171-223.451134-117.893061-9.178409-13.592576-5.663209-32.095999 7.814286-41.331337 5.112647-3.485381 10.86284-5.140067 16.585403-5.140067 9.46904 0 18.763088 4.558829 24.456997 13.012362 38.835038 57.537438 104.101112 91.867314 174.595471 91.867314 69.479198 0 134.223364-33.576723 173.144363-89.776699 9.352379-13.476943 27.824836-16.759709 41.158038-7.378038 13.39051 9.410324 16.643734 27.942399 7.320009 41.419342C682.546594 334.333834 599.706563 377.407861 510.941346 377.407861zM510.941346 173.947983c-32.559867 0-59.078911-26.25599-59.078911-58.554604s26.519043-58.554604 59.078911-58.554604c32.561914 0 59.079934 26.25599 59.079934 58.554604S543.504284 173.947983 510.941346 173.947983z"  horiz-adv-x="1024" />

    
    <glyph glyph-name="backward" unicode="&#59880;" d="M961.682286 815.396571q10.825143 10.825143 18.285714 7.460571t7.460571-18.285714l0-841.142857q0-14.848-7.460571-18.285714t-18.285714 7.460571l-405.723429 405.723429q-4.534857 5.12-7.460571 10.825143l0-405.723429q0-14.848-7.460571-18.285714t-18.285714 7.460571l-405.723429 405.723429q-10.825143 10.825143-10.825143 25.746286t10.825143 25.746286l405.723429 405.723429q10.825143 10.825143 18.285714 7.460571t7.460571-18.285714l0-405.723429q2.852571 6.290286 7.460571 10.825143z"  horiz-adv-x="1024" />

    
    <glyph glyph-name="yidiandiantubiao01" unicode="&#58885;" d="M737.195021-56.912863 407.900415-56.912863l0 0c-8.497925-48.863071-48.863071-84.979253-99.850622-84.979253-55.236515 0-101.975104 44.614108-101.975104 101.975104 0 40.365145 23.369295 74.356846 55.236515 91.352697l0 0L150.838174 661.161826C148.713693 673.908714 135.966805 684.53112 121.095436 684.53112L48.863071 684.53112l0 0C33.991701 684.53112 21.244813 697.278008 21.244813 714.273859s12.746888 29.742739 29.742739 29.742739l95.60166 0c27.618257 0 53.112033-21.244813 57.360996-46.738589l0 0L212.448133 648.414938l0 0 399.40249 0 363.286307 0c16.995851 0 29.742739-12.746888 29.742739-29.742739 0-2.124481 0-4.248963 0-6.373444l-84.979253-456.763485c0 0 0 2.124481 0 0-2.124481-12.746888-14.871369-23.369295-27.618257-23.369295l-282.556017 0-299.551867 0 12.746888-74.356846 0 0c36.116183-4.248963 67.983402-27.618257 80.73029-59.485477l342.041494 0 0 0c14.871369 36.116183 50.987552 59.485477 93.477178 59.485477 55.236515 0 101.975104-44.614108 101.975104-101.975104 0-55.236515-44.614108-101.975104-101.975104-101.975104C786.058091-141.892116 743.568465-105.775934 737.195021-56.912863L737.195021-56.912863zM922.024896 495.452282l14.871369 80.73029 0 0c0 0 0 2.124481 0 4.248963 0 6.373444-4.248963 10.622407-10.622407 10.622407l0 0-316.547718 0-386.655602 0 16.995851-95.60166 10.622407-57.360996 0 0 44.614108-246.439834 314.423237 0 240.06639 0-2.124481 0c8.497925 0 14.871369 6.373444 16.995851 14.871369l44.614108 231.568465L922.024896 495.452282zM310.174274 2.572614c-23.369295 0-42.489627-19.120332-42.489627-42.489627s19.120332-42.489627 42.489627-42.489627 42.489627 19.120332 42.489627 42.489627S333.543568 2.572614 310.174274 2.572614zM837.045643 2.572614c-23.369295 0-42.489627-19.120332-42.489627-42.489627s19.120332-42.489627 42.489627-42.489627c23.369295 0 42.489627 19.120332 42.489627 42.489627S860.414938 2.572614 837.045643 2.572614z"  horiz-adv-x="1024" />

    
    <glyph glyph-name="strikethrough" unicode="&#59501;" d="M1024 384 1024 320 789.504 320C816.992 281.504 832 237.312 832 192 832 121.12 795.328 52.96 731.424 5.024 672.064-39.488 594.144-64 512-64 429.856-64 351.936-39.488 292.576 5.024 228.672 52.96 192 121.12 192 192L320 192C320 122.624 407.936 64 512 64 616.064 64 704 122.624 704 192 704 261.376 616.064 320 512 320L0 320 0 384 299.52 384C297.184 385.664 294.848 387.328 292.576 389.024 228.672 436.96 192 505.12 192 576 192 646.88 228.672 715.04 292.576 762.976 351.936 807.488 429.856 832 512 832 594.144 832 672.064 807.488 731.424 762.976 795.328 715.04 832 646.88 832 576L704 576C704 645.376 616.064 704 512 704 407.936 704 320 645.376 320 576 320 506.624 407.936 448 512 448 590.976 448 666.048 425.312 724.48 384L1024 384Z"  horiz-adv-x="1024" />

    
    <glyph glyph-name="warning" unicode="&#58938;" d="M873.439-64.4 152.591-64.4c-48.34 0-87.174 19.097-106.568 52.405-19.399 33.308-17.039 76.816 6.499 119.331L416.23 764.228C439.905 807.053 475.11 831.6 512.775 831.6c37.67 0 72.84-24.517 96.581-67.304l364.09-657.027c23.532-42.516 25.966-85.992 6.531-119.296C960.614-45.334 921.748-64.4 873.439-64.4L873.439-64.4zM512.812 762.644c-11.976 0-25.693-11.964-36.813-31.998L112.291 73.687c-11.396-20.618-14.063-39.138-7.256-50.821 6.813-11.654 24.155-18.347 47.557-18.347l720.848 0c23.439 0 40.75 6.656 47.558 18.347 6.771 11.653 4.14 30.166-7.287 50.785L549.626 730.646C538.538 750.68 524.751 762.644 512.812 762.644L512.812 762.644zM513.017 246.666c-18.883 0-34.21 15.414-34.21 34.479L478.807 591.455c0 19.033 15.327 34.48 34.21 34.48 18.886 0 34.213-15.447 34.213-34.48l0-310.309C547.229 262.08 531.902 246.666 513.017 246.666zM512.771 78.129c29.441 0 53.309 24.096 53.309 53.819s-23.867 53.819-53.309 53.819-53.308-24.096-53.308-53.819S483.33 78.129 512.771 78.129z"  horiz-adv-x="1024" />

    
    <glyph glyph-name="minus" unicode="&#58892;" d="M23.140023 419.815717l977.720977 0 0-71.631434-977.720977 0 0 71.631434ZM512 872.859977M512-104.859977"  horiz-adv-x="1024" />

    
    <glyph glyph-name="home" unicode="&#58913;" d="M979.84 491.456 574.272 812c-34.912 27.648-89.696 27.616-124.576 0L44.16 491.456c-13.856-10.976-16.224-31.104-5.28-44.96s30.624-16.224 44.48-5.28L96 451.584 96 64c0-54.944 57.888-96 108.8-96l640 0c50.304 0 83.2 38.592 83.2 96L928 450.08l11.68-8.864c5.888-4.64 13.12-6.88 20.064-6.88 9.44 0 18.912 4.16 25.216 12.16C995.936 460.352 993.728 480.48 979.84 491.456zM480 32l0 177.408c0 8.832 16 13.248 32 13.248s32-4.416 32-13.248L544 32 480 32zM864 64c0-21.216-5.856-32-19.2-32L608.64 32c0 0.48-0.64 0.864-0.64 1.344l0 176.064c0 37.216-30.016 77.28-96 77.28s-96-40.064-96-77.28l0-176.064c0-0.48 0.864-0.864 0.864-1.344L204.8 32C184.736 32 160 49.344 160 64L160 502.176l328.928 259.616c11.808 9.344 33.12 9.344 44.96 0L864 500.672 864 64z"  horiz-adv-x="1024" />

    
    <glyph glyph-name="search" unicode="&#58908;" d="M991.397415-11.301415 685.887015 294.207015c42.706708 60.226954 67.893169 131.4048 67.893169 209.148062-3.286646 101.8368-38.327138 186.153354-106.216369 252.949662C580.765538 824.197908 496.448985 859.2384 394.612185 862.523077c-101.8368-3.284677-186.153354-38.325169-254.044554-106.216369-66.796308-66.796308-101.8368-151.112862-104.026585-252.949662 3.284677-101.834831 38.325169-186.153354 105.121477-254.042585 66.796308-66.796308 151.112862-101.8368 252.949662-104.026585 77.745231 0 147.828185 24.0896 208.053169 66.796308L908.175754-94.523077 991.397415-11.301415zM106.622031 503.357046c2.189785 82.126769 30.660923 150.017969 84.316554 203.6736s121.546831 82.126769 203.6736 84.316554c82.126769-2.189785 150.016-30.660923 203.6736-84.316554 54.750523-53.655631 83.221662-121.546831 85.409477-203.6736-2.187815-82.126769-30.658954-150.016-85.409477-203.6736-53.6576-53.655631-121.5488-82.1248-203.6736-84.314585-82.126769 2.189785-150.017969 30.658954-203.6736 84.314585C137.282954 353.341046 108.811815 421.230277 106.622031 503.357046z"  horiz-adv-x="1024" />

    
    <glyph glyph-name="download" unicode="&#59010;" d="M810.667 341.333l0-213.333-597.333 0 0 213.333-85.333 0 0-298.667 768 0 0 298.667zM512 213.333l170.667 213.333-128 0 0 298.667-85.333 0 0-298.667-128 0z"  horiz-adv-x="1024" />

    
    <glyph glyph-name="close" unicode="&#58882;" d="M937.281581 96.745236 937.281581 96.745236 937.281581 96.745236 937.281581 96.745236zM1002.320395 385.08398c0 270.99506-220.409315 491.404375-491.404375 491.404375-270.99506 0-491.404375-220.409315-491.404375-491.404375 0-270.99506 220.409315-491.404375 491.404375-491.404375C781.91108-106.320395 1002.320395 114.08892 1002.320395 385.08398M510.91602-35.500353c-231.971771 0-421.306987 188.612562-421.306987 421.306987 0 231.971771 188.612562 421.306987 421.306987 421.306987 231.971771 0 421.306987-188.612562 421.306987-421.306987C931.500353 153.112209 742.887791-35.500353 510.91602-35.500353M712.536344 231.158786l-151.757234 152.479887 151.757234 150.311927c13.730416 13.730416 13.730416 36.132675 0 49.863091-13.730416 13.730416-36.132675 13.730416-49.863091 0L510.91602 433.501764 360.604093 583.813691c-13.730416 13.730416-36.132675 13.730416-49.863091 0-13.730416-13.730416-13.730416-36.132675 0-49.863091l149.589273-150.311927L310.018349 234.772054c-13.730416-13.730416-13.730416-36.132675 0-49.863091 7.226535-7.226535 15.898377-10.117149 24.570219-10.117149 8.671842 0 18.066337 3.613267 24.570219 10.117149l151.03458 149.589273 152.479887-152.479887c6.503881-6.503881 15.898377-10.117149 24.570219-10.117149 8.671842 0 18.066337 3.613267 24.570219 10.117149C725.544107 195.026112 725.544107 217.42837 712.536344 231.158786"  horiz-adv-x="1024" />

    
    <glyph glyph-name="check" unicode="&#58930;" d="M887.904 597.792c-12.864 12.064-33.152 11.488-45.216-1.408L415.936 142.016l-233.12 229.696C170.208 384.128 149.952 384 137.536 371.392c-12.416-12.576-12.256-32.864 0.352-45.248l256.48-252.672c0.096-0.096 0.224-0.128 0.32-0.224 0.096-0.096 0.128-0.224 0.224-0.32 2.016-1.92 4.448-3.008 6.784-4.288 1.152-0.672 2.144-1.664 3.36-2.144 3.776-1.472 7.776-2.24 11.744-2.24 4.192 0 8.384 0.832 12.288 2.496 1.312 0.544 2.336 1.664 3.552 2.368 2.4 1.408 4.896 2.592 6.944 4.672 0.096 0.096 0.128 0.256 0.224 0.352 0.064 0.096 0.192 0.128 0.288 0.224l449.184 478.208C901.44 565.408 900.768 585.664 887.904 597.792z"  horiz-adv-x="1024" />

    
    <glyph glyph-name="eye" unicode="&#58934;" d="M512 768q69.674667 0 135.509333-21.162667t115.498667-54.997333 93.482667-74.837333 73.685333-82.005333 51.669333-74.837333 32.170667-54.826667l9.984-21.333333q-2.346667-4.992-6.314667-13.482667t-18.816-34.688-31.658667-51.669333-44.330667-59.989333-56.832-64.341333-69.504-60.16-82.346667-51.498667-94.848-34.688-107.349333-13.482667q-69.674667 0-135.509333 21.162667t-115.498667 54.826667-93.482667 74.325333-73.685333 81.493333-51.669333 74.496-32.170667 54.997333l-9.984 20.992q2.346667 4.992 6.314667 13.482667t18.816 34.816 31.658667 51.84 44.330667 60.330667 56.832 64.682667 69.504 60.330667 82.346667 51.84 94.848 34.816 107.349333 13.482667zM512 682.666667q-46.677333 0-91.648-12.330667t-81.152-31.829333-70.656-47.146667-59.648-54.485333-48.853333-57.685333-37.674667-52.821333-26.325333-43.989333q12.330667-21.674667 26.325333-43.52t37.674667-52.352 48.853333-57.002667 59.648-53.845333 70.656-46.677333 81.152-31.488 91.648-12.16 91.648 12.330667 81.152 31.658667 70.656 46.848 59.648 54.186667 48.853333 57.344 37.674667 52.650667 26.325333 43.648q-12.330667 21.674667-26.325333 43.648t-37.674667 52.650667-48.853333 57.344-59.648 54.186667-70.656 46.848-81.152 31.658667-91.648 12.330667zM512 554.666667q70.656 0 120.661333-50.005333t50.005333-120.661333-50.005333-120.661333-120.661333-50.005333-120.661333 50.005333-50.005333 120.661333 50.005333 120.661333 120.661333 50.005333zM512 469.333333q-35.328 0-60.330667-25.002667t-25.002667-60.330667 25.002667-60.330667 60.330667-25.002667 60.330667 25.002667 25.002667 60.330667-25.002667 60.330667-60.330667 25.002667z"  horiz-adv-x="1024" />

    
    <glyph glyph-name="phone" unicode="&#59287;" d="M288-64c-112 0-198.4 83.2-217.6 163.2-12.8 51.2 0 105.6 35.2 131.2 16 12.8 41.6 19.2 83.2 28.8 9.6 3.2 99.2 19.2 153.6 32 9.6 3.2 22.4 3.2 28.8-3.2l67.2-64 0 0c105.6 32 198.4 134.4 249.6 246.4 0 0-57.6 57.6-73.6 73.6-9.6 9.6-9.6 19.2-9.6 32l9.6 28.8c6.4 25.6 16 57.6 19.2 67.2 19.2 64 32 99.2 44.8 118.4 25.6 35.2 70.4 48 121.6 35.2 70.4-16 147.2-80 160-182.4 16-131.2-73.6-323.2-224-467.2C582.4 32 435.2-51.2 307.2-64 300.8-64 294.4-64 288-64L288-64 288-64zM339.2 224c-92.8-19.2-131.2-25.6-134.4-25.6-12.8-3.2-54.4-12.8-60.8-19.2-12.8-9.6-19.2-35.2-9.6-64C147.2 60.8 208 0 288 0c0 0 0 0 0 0l0 0c3.2 0 9.6 0 12.8 0 112 9.6 246.4 86.4 387.2 224C822.4 352 908.8 528 896 640c-9.6 70.4-64 115.2-112 128C774.4 768 768 768 761.6 768c-22.4 0-32-9.6-35.2-16-9.6-12.8-25.6-73.6-35.2-96-3.2-9.6-12.8-41.6-19.2-67.2L668.8 576c28.8-28.8 76.8-76.8 76.8-76.8 9.6-9.6 12.8-22.4 6.4-35.2l-9.6-19.2c-57.6-128-163.2-233.6-281.6-284.8l-19.2-9.6c-12.8-6.4-25.6-3.2-35.2 6.4L339.2 224z"  horiz-adv-x="1024" />

    
    <glyph glyph-name="info" unicode="&#58971;" d="M512-62.016C266.08-62.016 65.984 138.048 65.984 384 65.984 629.92 266.08 830.016 512 830.016c245.952 0 446.016-200.064 446.016-446.016C958.016 138.048 757.952-62.016 512-62.016zM512 766.016C301.344 766.016 129.984 594.656 129.984 384c0-210.624 171.36-382.016 382.016-382.016 210.624 0 382.016 171.36 382.016 382.016C894.016 594.656 722.624 766.016 512 766.016zM512 592m-48 0a1.5 1.5 0 1 0 96 0 1.5 1.5 0 1 0-96 0ZM512 128c-17.664 0-32 14.304-32 32l0 288c0 17.664 14.336 32 32 32s32-14.336 32-32l0-288C544 142.304 529.664 128 512 128z"  horiz-adv-x="1024" />

    
    <glyph glyph-name="caret-left" unicode="&#58961;" d="M765.397 715.823c0 32.209-39.532 49.892-65.799 29.407l-405.35-316.399c-30.156-23.526-30.156-67.296 0-90.824l405.394-316.079c26.227-20.485 65.757-2.8 65.757 29.408v664.487z"  horiz-adv-x="1024" />

    
    <glyph glyph-name="caretup" unicode="&#58888;" d="M843.823 130.603c32.209 0 49.892 39.532 29.407 65.799l-316.399 405.35c-23.526 30.156-67.296 30.156-90.824 0l-316.079-405.394c-20.485-26.227-2.8-65.757 29.408-65.757l664.487 0z"  horiz-adv-x="1024" />

    
    <glyph glyph-name="dislike" unicode="&#58903;" d="M930.016 384q-4.992 24.992-16.992 48 15.008 32.992 10.016 64.992-4.992 36-35.008 64.992 11.008 32.992 4 64.992-10.016 39.008-46.016 67.008 0 3.008-2.016 12-7.008 36.992-32.992 64.992-52.992 59.008-168.992 59.008H640q-58.016 0-108.992-7.008t-75.008-13.504-60-18.496h-2.016q-56-18.016-86.016-18.016H159.968q-28 0-48-20t-20-48.992v-336.992q0-28.992 20-48.992t48.992-20h104.992q27.008 0 48.992-12.992 32-20 62.016-51.008 56-59.008 74.016-140.992 2.016-7.008 4-20.992 0-0.992 0.992-4.992v-0.992q7.008-43.008 16-64 19.008-43.008 60.992-56.992 28.992-8.992 59.008-7.008 36.992 3.008 64 24 30.016 22.016 46.016 60 16 40 16 96v3.008q-3.008 48.992-19.008 95.008h92q38.016 0 70.016 18.016 22.016 12.992 40.992 36.512t27.008 54.496q6.016 28.992 0.992 59.008z m-85.024 29.984q24.992-40 16.992-72.992-7.008-32-35.008-48-16-8.992-36.992-8.992h-108.992q-30.016 0-46.016-24.992-16.992-24.992-4.992-52.992 16-36.992 19.008-88.992 0-76-32.992-100-24.992-18.016-62.016-7.008-14.016 4.992-20 18.496t-11.008 49.504l-6.016 30.016q-22.016 100-91.008 172-36 39.008-76 63.008-12.992 7.008-24.992 12V706.048q32.992 2.016 91.008 20.992 34.016 11.008 56.512 16.992t68.512 12T640 762.048h2.016q84.992 0 118.016-36 10.016-10.016 14.496-22.016t4.992-17.504-0.512-7.488q-2.016-22.016 16.992-32 24.992-15.008 28.992-34.016 4.992-22.016-7.008-42.016-8-12-5.504-25.504t14.496-21.504q26.016-16.992 28.992-36 3.008-16.992-8.992-34.016-15.008-19.008-2.016-40zM160 704v0.992h96.992v-339.008h-96q-0.992 0-0.992 0.992V703.968z"  horiz-adv-x="1024" />

    
    <glyph glyph-name="exclamationcircleo" unicode="&#58912;" d="M512 824q90.016 0 171.008-34.016 79.008-34.016 140-95.008t94.016-140q35.008-80.992 35.008-171.008t-34.016-171.008q-34.016-79.008-95.008-140t-140-94.016Q602.016-56.064 512-56.064t-171.008 34.016q-79.008 34.016-140 95.008t-94.016 140q-35.008 80.992-35.008 171.008t34.016 171.008q34.016 79.008 95.008 140t140 94.016Q421.984 824 512 824zM512 896q-139.008 0-256.992-68.512T68.512 640.992 0 384t68.512-256.992 186.496-186.496T512-128t256.992 68.512 186.496 186.496T1024 384t-68.512 256.992-186.496 186.496T512 896z m0-640q-16.992 0-28.512 11.488t-11.488 28.512V664.992q0 16.992 11.488 28.512T512 704.992t28.512-11.488 11.488-28.512V296q0-16.992-11.488-28.512T512 256z m-44.992-108.992q0 19.008 12.992 32T512 192t32-12.992 12.992-32-12.992-32-32-12.992-32 12.992-12.992 32z"  horiz-adv-x="1024" />

    
    <glyph glyph-name="forward" unicode="&#58918;" d="M575.008 789.984l436-375.008q12.992-12 12.992-30.016t-12.992-28.992L575.008-22.048q-18.016-16.992-40.512-6.496T512 7.968v752q0 26.016 22.496 36.512t40.512-6.496z m-512 0l436-375.008q12.992-12 12.992-30.016t-12.992-28.992L63.008-22.048q-18.016-16.992-40.512-6.496T0 7.968v752q0 26.016 22.496 36.512t40.512-6.496z"  horiz-adv-x="1024" />

    
    <glyph glyph-name="pause" unicode="&#58941;" d="M326.016 704q-15.008 0-25.504-11.008t-10.496-24.992v-568q0-14.016 10.496-24.992t25.504-11.008q15.008 0 24.992 11.008t8.992 24.992V668q0.992 14.016-8.992 24.992T326.016 704z m372 0q-14.016 0-24.992-11.008t-11.008-24.992v-568q0-14.016 11.008-24.992t24.992-11.008q15.008 0 25.504 11.008t10.496 24.992V668q0 14.016-10.496 24.992T698.016 704z"  horiz-adv-x="1024" />

    
    <glyph glyph-name="up" unicode="&#58967;" d="M896 236q0 15.008-10.016 28L544.992 687.008Q532 704 510.976 704t-34.016-16.992L137.952 264.992q-11.008-14.016-8.992-32t16-28.992 32-8.992 28.992 16l304.992 379.008 307.008-380.992q11.008-14.016 28.992-16t32 8.992q16.992 12.992 16.992 34.016z"  horiz-adv-x="1024" />

    
    <glyph glyph-name="edit" unicode="&#58894;" d="M882.192537 45.247184H141.881817c-16.379257 0-29.655241-13.274027-29.655241-29.651327 0-16.379257 13.275984-29.655241 29.655241-29.655241h740.312676c16.379257 0 29.655241 13.275984 29.655241 29.655241-0.001957 16.3773-13.27794 29.651327-29.657197 29.651327zM141.801593 130.442409l0.04109 0.001957 0.04109-0.001957h129.24762c8.216044 0 15.64942 3.343943 21.022427 8.74043l458.143727 458.143728c5.879783 5.419967 9.58571 13.16054 9.58571 21.785527l-0.003913 0.060656 0.001957 0.02348c0 8.63477-3.711797 16.38317-9.601364 21.801181L624.024061 767.25133c-0.04109 0.05283-0.095877 0.09979-0.136967 0.15262a30.273547 30.273547 0 0 1-1.886226 2.085807c-0.289587 0.2935-0.606567 0.56352-0.911807 0.84528-0.4696 0.436337-0.937243 0.872673-1.434237 1.277703-0.350243 0.285673-0.72201 0.543953-1.087907 0.813974-0.453947 0.336547-0.907893 0.673093-1.37945 0.984203-0.39916 0.260237-0.81006 0.49895-1.22096 0.73962a28.539941 28.539941 0 0 1-1.434236 0.802234 31.073824 31.073824 0 0 1-4.19705 1.77274c-0.538083 0.180013-1.09182 0.332633-1.645557 0.485253-0.453947 0.12327-0.905937 0.250453-1.369667 0.3522a28.547767 28.547767 0 0 1-1.894053 0.32872c-0.4109 0.062613-0.81593 0.142837-1.234657 0.18784a29.185641 29.185641 0 0 1-3.030877 0.174143c-0.060657 0-0.121313 0.009783-0.18197 0.009784H600.953004a29.561321 29.561321 0 0 1-20.971554-8.687601L120.920046 310.514447a29.729594 29.729594 0 0 1-6.396343-9.527011 29.541754 29.541754 0 0 1-2.379307-11.642166V160.09765c0-16.379257 13.27794-29.655241 29.657197-29.655241z m459.165107 576.238347l87.400389-87.400389-49.893044-49.895001-87.400389 87.402345 49.893044 49.893045zM171.456834 277.174803l337.800898 337.796984 87.402345-87.400389-337.818508-337.816551h-87.384735v87.419956z"  horiz-adv-x="1024" />

    
    <glyph glyph-name="more" unicode="&#58904;" d="M511.910972 619.652134c43.753024 0 79.233262 35.478281 79.233261 79.237175 0 43.760851-35.480237 79.241088-79.233261 79.241088-43.760851 0-79.239132-35.480237-79.239132-79.241088 0-43.758894 35.478281-79.237175 79.239132-79.237175z m0-158.476307c-43.760851 0-79.239132-35.482194-79.239132-79.239132 0-43.762808 35.478281-79.237175 79.239132-79.237175 43.753024 0 79.233262 35.474367 79.233261 79.237175 0 43.756938-35.480237 79.239132-79.233261 79.239132z m0-316.956527c-43.760851 0-79.239132-35.437191-79.239132-79.237176 0-43.756938 35.478281-79.237175 79.239132-79.237175 43.753024 0 79.233262 35.480237 79.233261 79.237175 0 43.799984-35.480237 79.237175-79.233261 79.237176z"  horiz-adv-x="1024" />

    
    <glyph glyph-name="border-top" unicode="&#58988;" d="M640 341.333333h85.333333v85.333334h-85.333333m170.666667-426.666667h85.333333v85.333333h-85.333333M469.333333 512h85.333334V597.333333h-85.333334m170.666667-597.333333h85.333333v85.333333h-85.333333m170.666667 85.333334h85.333333v85.333333h-85.333333M128 682.666667h768V768H128m682.666667-426.666667h85.333333v85.333334h-85.333333m0 85.333333h85.333333V597.333333h-85.333333m-341.333334-426.666666h85.333334v85.333333h-85.333334M128 512h85.333333V597.333333H128m0-256h85.333333v85.333334H128m0-426.666667h85.333333v85.333333H128m0 85.333334h85.333333v85.333333H128m341.333333-256h85.333334v85.333333h-85.333334m0 256h85.333334v85.333334h-85.333334m-170.666666-85.333334h85.333333v85.333334H298.666667m0-426.666667h85.333333v85.333333H298.666667v-85.333333z"  horiz-adv-x="1024" />

    
    <glyph glyph-name="check-circle-o" unicode="&#59460;" d="M512 832C265.6 832 64 630.4 64 384s201.6-448 448-448 448 201.6 448 448S758.4 832 512 832z m0-832C300.8 0 128 172.8 128 384S300.8 768 512 768s384-172.8 384-384-172.8-384-384-384zM758.4 544c-12.8 12.8-32 12.8-44.8 0l-249.6-249.6L310.4 448c-12.8 12.8-32 12.8-44.8 0s-12.8-32 0-44.8l176-176c6.4-6.4 16-9.6 22.4-9.6s16 3.2 22.4 9.6l272 272c12.8 9.6 12.8 32 0 44.8z"  horiz-adv-x="1024" />

    
    <glyph glyph-name="clock-circle-o" unicode="&#59463;" d="M512 832C265.6 832 64 630.4 64 384s201.6-448 448-448 448 201.6 448 448S758.4 832 512 832z m0-832C300.8 0 128 172.8 128 384S300.8 768 512 768s384-172.8 384-384-172.8-384-384-384zM694.4 246.4L544 396.8V672c0 19.2-12.8 32-32 32s-32-12.8-32-32v-288c0-9.6 3.2-16 9.6-22.4l160-160c6.4-6.4 16-9.6 22.4-9.6s16 3.2 22.4 9.6c12.8 12.8 12.8 32 0 44.8z"  horiz-adv-x="1024" />

    
    <glyph glyph-name="down-circle-o" unicode="&#59471;" d="M512 768c211.2 0 384-172.8 384-384s-172.8-384-384-384S128 172.8 128 384 300.8 768 512 768m0 64C265.6 832 64 630.4 64 384s201.6-448 448-448 448 201.6 448 448S758.4 832 512 832zM512 332.8l-169.6 169.6c-12.8 12.8-32 12.8-44.8 0s-12.8-32 0-44.8l192-192c12.8-12.8 32-12.8 44.8 0l192 192c6.4 6.4 9.6 16 9.6 22.4s-3.2 16-9.6 22.4c-12.8 12.8-32 12.8-44.8 0L512 332.8z"  horiz-adv-x="1024" />

    
    <glyph glyph-name="left-circle-o" unicode="&#59486;" d="M512 768c211.2 0 384-172.8 384-384s-172.8-384-384-384S128 172.8 128 384 300.8 768 512 768m0 64C265.6 832 64 630.4 64 384s201.6-448 448-448 448 201.6 448 448S758.4 832 512 832zM460.8 384l169.6 169.6c12.8 12.8 12.8 32 0 44.8s-32 12.8-44.8 0l-192-192c-12.8-12.8-12.8-32 0-44.8l192-192c6.4-6.4 16-9.6 22.4-9.6s16 3.2 22.4 9.6c12.8 12.8 12.8 32 0 44.8L460.8 384z"  horiz-adv-x="1024" />

    
    <glyph glyph-name="right-circle-o" unicode="&#59505;" d="M512 768c211.2 0 384-172.8 384-384s-172.8-384-384-384S128 172.8 128 384 300.8 768 512 768m0 64C265.6 832 64 630.4 64 384s201.6-448 448-448 448 201.6 448 448S758.4 832 512 832zM563.2 384l-169.6-169.6c-12.8-12.8-12.8-32 0-44.8s32-12.8 44.8 0l192 192c12.8 12.8 12.8 32 0 44.8l-192 192c-6.4 6.4-12.8 9.6-22.4 9.6s-16-3.2-22.4-9.6c-12.8-12.8-12.8-32 0-44.8l169.6-169.6z"  horiz-adv-x="1024" />

    
    <glyph glyph-name="up-circle-o" unicode="&#59518;" d="M512 768c211.2 0 384-172.8 384-384s-172.8-384-384-384S128 172.8 128 384 300.8 768 512 768m0 64C265.6 832 64 630.4 64 384s201.6-448 448-448 448 201.6 448 448S758.4 832 512 832zM512 435.2l169.6-169.6c12.8-12.8 32-12.8 44.8 0s12.8 32 0 44.8l-192 192c-12.8 12.8-32 12.8-44.8 0l-192-192c-6.4-6.4-9.6-12.8-9.6-22.4s3.2-16 9.6-22.4c12.8-12.8 32-12.8 44.8 0l169.6 169.6z"  horiz-adv-x="1024" />

    
    <glyph glyph-name="log-in" unicode="&#59081;" d="M511.977739 896C293.62087 896 107.27513 759.318261 33.658435 566.850783H112.862609a438.917565 438.917565 0 0 0 88.820869 127.465739A435.934609 435.934609 0 0 0 512 822.850783c117.225739 0 227.439304-45.634783 310.316522-128.534261A435.95687 435.95687 0 0 0 950.873043 384c0-117.225739-45.634783-227.439304-128.53426-310.316522a436.023652 436.023652 0 0 0-310.338783-128.534261 435.95687 435.95687 0 0 0-310.316522 128.534261 438.962087 438.962087 0 0 0-88.820869 127.465739H33.636174C107.27513 8.681739 293.665391-128 511.977739-128 794.757565-128 1024 101.220174 1024 384 1024 666.757565 794.757565 896 511.977739 896zM399.693913 228.841739l51.712-51.712L658.276174 384l-206.870261 206.870261-51.712-51.712 118.583652-118.583652H0v-73.149218h518.277565z"  horiz-adv-x="1024" />

    
    <glyph glyph-name="log-out" unicode="&#59082;" d="M765.395478 228.841739l51.734261-51.712L1024 384l-206.870261 206.870261-51.734261-51.712 118.583652-118.583652H365.746087v-73.149218H883.97913zM821.693217 73.683478a435.934609 435.934609 0 0 0-310.316521-128.534261 436.023652 436.023652 0 0 0-310.316522 128.534261C118.160696 156.560696 73.149217 266.774261 73.149217 384c0 117.203478 45.011478 227.417043 127.910957 310.316522a436.023652 436.023652 0 0 0 310.316522 128.534261c117.225739 0 227.417043-45.634783 310.316521-128.534261 5.787826-5.787826 11.353043-11.709217 16.762435-17.741913h93.094957C839.034435 809.182609 685.345391 896 511.398957 896 228.61913 896 0 666.757565 0 384c0-282.779826 228.61913-512 511.398957-512 173.968696 0 327.657739 86.79513 420.151652 219.425391h-93.094957a445.217391 445.217391 0 0 0-16.762435-17.741913z"  horiz-adv-x="1024" />

    
    <glyph glyph-name="right" unicode="&#58999;" d="M746.08 383.93600000000004a31.584 31.584 0 0 0-9.28-22.4L374.464-0.7999999999999545a31.808 31.808 0 0 0-45.12 0.128 31.904 31.904 0 0 0-0.128 45.12L668.8 384 329.28 723.552a31.808 31.808 0 0 0 0.128 45.12 31.904 31.904 0 0 0 45.12 0.128l362.304-362.336c6.208-6.176 9.28-14.272 9.312-22.4l-0.032-0.128z"  horiz-adv-x="1056" />

    
    <glyph glyph-name="unfold" unicode="&#59012;" d="M753.6 284.48a32 32 0 1 0 28.8-56.96l-256-128a32 32 0 0 0-28.8 0l-256 128a32 32 0 0 0 28.8 56.96L512 163.84000000000003zM753.6 572.48a32 32 0 1 0 28.8-56.96l-256-128a32 32 0 0 0-28.8 0l-256 128a32 32 0 1 0 28.8 56.96L512 451.84z"  horiz-adv-x="1024" />

    
    <glyph glyph-name="pack-up" unicode="&#59013;" d="M270.4 419.52a32 32 0 1 0-28.8 56.96l256 128a32 32 0 0 0 28.8 0l256-128a32 32 0 0 0-28.8-56.96L512 540.1600000000001zM270.4 131.51999999999998a32 32 0 0 0-28.8 56.96l256 128a32 32 0 0 0 28.8 0l256-128a32 32 0 0 0-28.8-56.96L512 252.15999999999997z"  horiz-adv-x="1024" />

    
    <glyph glyph-name="minus-circle" unicode="&#59264;" d="M696 416H328c-4.4 0-8-3.6-8-8v-48c0-4.4 3.6-8 8-8h368c4.4 0 8 3.6 8 8v48c0 4.4-3.6 8-8 8zM512 832C264.6 832 64 631.4 64 384s200.6-448 448-448 448 200.6 448 448S759.4 832 512 832z m0-820c-205.4 0-372 166.6-372 372s166.6 372 372 372 372-166.6 372-372-166.6-372-372-372z"  horiz-adv-x="1024" />

    
    <glyph glyph-name="play-circle" unicode="&#59265;" d="M512 832C264.6 832 64 631.4 64 384s200.6-448 448-448 448 200.6 448 448S759.4 832 512 832z m0-820c-205.4 0-372 166.6-372 372s166.6 372 372 372 372-166.6 372-372-166.6-372-372-372zM719.4 396.9l-296.1 215c-10.6 7.7-25.3 0.2-25.3-12.9v-430c0-13.1 14.8-20.5 25.3-12.9l296.1 215c8.8 6.4 8.8 19.4 0 25.8z m-257.6-134V505.1L628.5 384 461.8 262.9z"  horiz-adv-x="1024" />

    
    <glyph glyph-name="question-circle" unicode="&#59266;" d="M512 832C264.6 832 64 631.4 64 384s200.6-448 448-448 448 200.6 448 448S759.4 832 512 832z m0-820c-205.4 0-372 166.6-372 372s166.6 372 372 372 372-166.6 372-372-166.6-372-372-372zM623.6 579.3C593.6 605.6 554 620 512 620s-81.6-14.5-111.6-40.7C369.2 552 352 515.3 352 476v-7.6c0-4.4 3.6-8 8-8h48c4.4 0 8 3.6 8 8V476c0 44.1 43.1 80 96 80s96-35.9 96-80c0-31.1-22-59.6-56.1-72.7-21.2-8.1-39.2-22.3-52.1-40.9-13.1-19-19.9-41.8-19.9-64.9V276c0-4.4 3.6-8 8-8h48c4.4 0 8 3.6 8 8v22.7c0 19.7 12.4 37.7 30.9 44.8 59 22.7 97.1 74.7 97.1 132.5 0.1 39.3-17.1 76-48.3 103.3zM512 164m-40 0a40 40 0 1 1 80 0 40 40 0 1 1-80 0Z"  horiz-adv-x="1024" />

    
    <glyph glyph-name="undo" unicode="&#59271;" d="M511.4 772C290.5 771.7 112 593 112 372.1c0-128 60.2-242 153.8-315.2l-37.5-48c-4.1-5.3-0.3-13 6.3-12.9l167 0.8c5.2 0 9 4.9 7.7 9.9L369.8 169c-1.6 6.5-10 8.3-14.1 3L315 119.9c-10.2 8-20 16.7-29.3 26-29.4 29.4-52.5 63.6-68.6 101.7C200.4 287 192 328.9 192 372.1s8.4 85.1 25.1 124.5c16.1 38.1 39.2 72.3 68.6 101.7 29.4 29.4 63.6 52.5 101.7 68.6C426.9 683.6 468.8 692 512 692s85.1-8.4 124.5-25.1c38.1-16.1 72.3-39.2 101.7-68.6 29.4-29.4 52.5-63.6 68.6-101.7 16.7-39.4 25.1-81.3 25.1-124.5s-8.4-85.1-25.1-124.5c-16.1-38.1-39.2-72.3-68.6-101.7-7.5-7.5-15.3-14.5-23.4-21.2-3.4-2.8-3.9-7.7-1.2-11.1l39.4-50.5c2.8-3.5 7.9-4.1 11.4-1.3C854.5 135.2 912 246.9 912 372.1c0 221.1-179.4 400.2-400.6 399.9z"  horiz-adv-x="1024" />

    
    <glyph glyph-name="dashboard" unicode="&#59275;" d="M924.8 510.4c-22.6 53.4-54.9 101.3-96 142.4-41.1 41.1-89 73.4-142.4 96C631.1 772.2 572.5 784 512 784s-119.1-11.8-174.4-35.2c-53.4-22.6-101.3-54.9-142.4-96-41.1-41.1-73.4-89-96-142.4C75.8 455.1 64 396.5 64 336c0-132.7 58.3-257.7 159.9-343.1l1.7-1.4c5.8-4.8 13.1-7.5 20.6-7.5h531.7c7.5 0 14.8 2.7 20.6 7.5l1.7 1.4C901.7 78.3 960 203.3 960 336c0 60.5-11.9 119.1-35.2 174.4zM761.4 60H262.6C184.5 130.5 140 230.4 140 336c0 99.4 38.7 192.8 109 263 70.3 70.3 163.7 109 263 109 99.4 0 192.8-38.7 263-109 70.3-70.3 109-163.7 109-263 0-105.6-44.5-205.5-122.6-276zM623.5 474.5c-3.1 3.1-8.2 3.1-11.3 0L527.7 390c-18.7 5-39.4 0.2-54.1-14.5-21.9-21.9-21.9-57.3 0-79.2 21.9-21.9 57.3-21.9 79.2 0 14.7 14.7 19.5 35.4 14.5 54.1l84.5 84.5c3.1 3.1 3.1 8.2 0 11.3l-28.3 28.3zM490 576h44c4.4 0 8 3.6 8 8v80c0 4.4-3.6 8-8 8h-44c-4.4 0-8-3.6-8-8v-80c0-4.4 3.6-8 8-8zM750 358v-44c0-4.4 3.6-8 8-8h80c4.4 0 8 3.6 8 8v44c0 4.4-3.6 8-8 8h-80c-4.4 0-8-3.6-8-8zM762.7 555.2l-31.1 31.1c-3.1 3.1-8.2 3.1-11.3 0l-56.6-56.6c-3.1-3.1-3.1-8.2 0-11.3l31.1-31.1c3.1-3.1 8.2-3.1 11.3 0l56.6 56.6c3.1 3.1 3.1 8.2 0 11.3zM304.1 586.3c-3.1 3.1-8.2 3.1-11.3 0l-31.1-31.1c-3.1-3.1-3.1-8.2 0-11.3l56.6-56.6c3.1-3.1 8.2-3.1 11.3 0l31.1 31.1c3.1 3.1 3.1 8.2 0 11.3l-56.6 56.6zM262 366h-80c-4.4 0-8-3.6-8-8v-44c0-4.4 3.6-8 8-8h80c4.4 0 8 3.6 8 8v44c0 4.4-3.6 8-8 8z"  horiz-adv-x="1024" />

    
    <glyph glyph-name="piechart" unicode="&#59278;" d="M864 378H506V736c0 4.4-3.6 8-8 8h-26c-54 0-106.4-10.6-155.7-31.4-47.6-20.1-90.4-49-127.1-85.7-36.7-36.7-65.6-79.5-85.7-127.1C82.6 450.4 72 398 72 344c0-54 10.6-106.4 31.4-155.7 20.1-47.6 49-90.4 85.7-127.1 36.7-36.7 79.5-65.6 127.1-85.7C365.6-45.4 418-56 472-56c54 0 106.4 10.6 155.7 31.4 47.6 20.1 90.4 49 127.1 85.7 36.7 36.7 65.6 79.5 85.7 127.1C861.4 237.6 872 290 872 344v26c0 4.4-3.6 8-8 8zM705.7 108.2c-62.6-62.1-147.1-96.6-235.3-96.2-88.1 0.4-170.9 34.9-233.2 97.2C174.5 171.9 140 255.3 140 344c0 88.7 34.5 172.1 97.2 234.8 54.6 54.6 124.9 87.9 200.8 95.5V310h364.3c-7.7-76.3-41.3-147-96.6-201.8zM952 433.6l-2.6 28.2c-8.5 92.1-49.4 179-115.2 244.6-65.8 65.7-152.8 106.5-245.2 115L560.7 824c-4.7 0.4-8.7-3.2-8.7-7.9V432c0-4.4 3.6-8 8-8l384 1c4.7 0 8.4 4 8 8.6z m-332.2 58.2V748.4c62.6-13.1 120.7-44.2 166.4-89.8 45.7-45.6 77-103.6 90-166.1l-256.4-0.7z"  horiz-adv-x="1024" />

    
    <glyph glyph-name="setting" unicode="&#59279;" d="M924.8 270.3l-65.5 56c3.1 19 4.7 38.4 4.7 57.8s-1.6 38.8-4.7 57.8l65.5 56c10.1 8.6 13.8 22.6 9.3 35.2l-0.9 2.6c-18.1 50.5-44.9 96.9-79.7 137.9l-1.8 2.1c-8.6 10.1-22.5 13.9-35.1 9.5l-81.3-28.9c-30 24.6-63.5 44-99.7 57.6l-15.7 85c-2.4 13.1-12.7 23.3-25.8 25.7l-2.7 0.5c-52.1 9.4-106.9 9.4-159 0l-2.7-0.5c-13.1-2.4-23.4-12.6-25.8-25.7l-15.8-85.4c-35.9-13.6-69.2-32.9-99-57.4l-81.9 29.1c-12.5 4.4-26.5 0.7-35.1-9.5l-1.8-2.1c-34.8-41.1-61.6-87.5-79.7-137.9l-0.9-2.6c-4.5-12.5-0.8-26.5 9.3-35.2l66.3-56.6c-3.1-18.8-4.6-38-4.6-57.1 0-19.2 1.5-38.4 4.6-57.1L99 270.5c-10.1-8.6-13.8-22.6-9.3-35.2l0.9-2.6c18.1-50.4 44.9-96.9 79.7-137.9l1.8-2.1c8.6-10.1 22.5-13.9 35.1-9.5l81.9 29.1c29.8-24.5 63.1-43.9 99-57.4l15.8-85.4c2.4-13.1 12.7-23.3 25.8-25.7l2.7-0.5c26.1-4.7 52.8-7.1 79.5-7.1 26.7 0 53.5 2.4 79.5 7.1l2.7 0.5c13.1 2.4 23.4 12.6 25.8 25.7l15.7 85c36.2 13.6 69.7 32.9 99.7 57.6l81.3-28.9c12.5-4.4 26.5-0.7 35.1 9.5l1.8 2.1c34.8 41.1 61.6 87.5 79.7 137.9l0.9 2.6c4.5 12.3 0.8 26.3-9.3 35zM788.3 430.1c2.5-15.1 3.8-30.6 3.8-46.1s-1.3-31-3.8-46.1l-6.6-40.1 74.7-63.9c-11.3-26.1-25.6-50.7-42.6-73.6L721 193.2l-31.4-25.8c-23.9-19.6-50.5-35-79.3-45.8l-38.1-14.3-17.9-97c-28.1-3.2-56.8-3.2-85 0l-17.9 97.2-37.8 14.5c-28.5 10.8-55 26.2-78.7 45.7l-31.4 25.9-93.4-33.2c-17 22.9-31.2 47.6-42.6 73.6l75.5 64.5-6.5 40c-2.4 14.9-3.7 30.3-3.7 45.5 0 15.3 1.2 30.6 3.7 45.5l6.5 40-75.5 64.5c11.3 26.1 25.6 50.7 42.6 73.6l93.4-33.2 31.4 25.9c23.7 19.5 50.2 34.9 78.7 45.7l37.9 14.3 17.9 97.2c28.1 3.2 56.8 3.2 85 0l17.9-97 38.1-14.3c28.7-10.8 55.4-26.2 79.3-45.8l31.4-25.8 92.8 32.9c17-22.9 31.2-47.6 42.6-73.6L781.8 470l6.5-39.9zM512 570c-97.2 0-176-78.8-176-176s78.8-176 176-176 176 78.8 176 176-78.8 176-176 176z m79.2-255.2C570 293.7 541.9 282 512 282c-29.9 0-58 11.7-79.2 32.8C411.7 336 400 364.1 400 394c0 29.9 11.7 58 32.8 79.2C454 494.4 482.1 506 512 506c29.9 0 58-11.6 79.2-32.8C612.3 452 624 423.9 624 394c0-29.9-11.7-58-32.8-79.2z"  horiz-adv-x="1024" />

    
    <glyph glyph-name="check-square" unicode="&#59304;" d="M433.1 238.29999999999995c12.7-17.7 39-17.7 51.7 0l210.6 292c3.8 5.3 0 12.7-6.5 12.7H642c-10.2 0-19.9-4.9-25.9-13.3L459 311.70000000000005l-71.2 98.8c-6 8.3-15.6 13.3-25.9 13.3H315c-6.5 0-10.3-7.4-6.5-12.7l124.6-172.8zM880 784H144c-17.7 0-32-14.3-32-32v-736c0-17.7 14.3-32 32-32h736c17.7 0 32 14.3 32 32V752c0 17.7-14.3 32-32 32z m-40-728H184V712h656v-656z"  horiz-adv-x="1024" />

    
    <glyph glyph-name="linechart" unicode="&#59311;" d="M888 104H200V728c0 4.4-3.6 8-8 8h-56c-4.4 0-8-3.6-8-8v-688c0-4.4 3.6-8 8-8h752c4.4 0 8 3.6 8 8v56c0 4.4-3.6 8-8 8zM305.8 258.3c3.1-3.1 8.1-3.1 11.3 0l138.3 137.6L583 267.5c3.1-3.1 8.2-3.1 11.3 0l275.4 275.3c3.1 3.1 3.1 8.2 0 11.3l-39.6 39.6c-3.1 3.1-8.2 3.1-11.3 0l-230-229.9L461.4 492c-3.1 3.1-8.2 3.1-11.3 0L266.3 309.3c-3.1-3.1-3.1-8.2 0-11.3l39.5-39.7z"  horiz-adv-x="1024" />

    
    <glyph glyph-name="barchart" unicode="&#59312;" d="M888 104H200V728c0 4.4-3.6 8-8 8h-56c-4.4 0-8-3.6-8-8v-688c0-4.4 3.6-8 8-8h752c4.4 0 8 3.6 8 8v56c0 4.4-3.6 8-8 8zM288 184h56c4.4 0 8 3.6 8 8V336c0 4.4-3.6 8-8 8h-56c-4.4 0-8-3.6-8-8v-144c0-4.4 3.6-8 8-8zM440 184h56c4.4 0 8 3.6 8 8V512c0 4.4-3.6 8-8 8h-56c-4.4 0-8-3.6-8-8v-320c0-4.4 3.6-8 8-8zM592 184h56c4.4 0 8 3.6 8 8V434c0 4.4-3.6 8-8 8h-56c-4.4 0-8-3.6-8-8v-242c0-4.4 3.6-8 8-8zM744 184h56c4.4 0 8 3.6 8 8V592c0 4.4-3.6 8-8 8h-56c-4.4 0-8-3.6-8-8v-400c0-4.4 3.6-8 8-8z"  horiz-adv-x="1024" />

    
    <glyph glyph-name="mobile" unicode="&#59314;" d="M744 834H280c-35.3 0-64-28.7-64-64v-768c0-35.3 28.7-64 64-64h464c35.3 0 64 28.7 64 64V770c0 35.3-28.7 64-64 64z m-8-824H288V762h448v-752zM512 112m-40 0a40 40 0 1 1 80 0 40 40 0 1 1-80 0Z"  horiz-adv-x="1024" />

    
    <glyph glyph-name="snippets" unicode="&#59324;" d="M832 784H724V824c0 4.4-3.6 8-8 8h-56c-4.4 0-8-3.6-8-8v-40H500V824c0 4.4-3.6 8-8 8h-56c-4.4 0-8-3.6-8-8v-40H320c-17.7 0-32-14.3-32-32v-120h-96c-17.7 0-32-14.3-32-32v-632c0-17.7 14.3-32 32-32h512c17.7 0 32 14.3 32 32v96h96c17.7 0 32 14.3 32 32V752c0 17.7-14.3 32-32 32zM664 8H232V560h218v-174c0-22.1 17.9-40 40-40h174v-338z m0 402H514V560h0.2L664 410.2v-0.2z m128-274h-56V440L544 632H360v80h68v-32c0-4.4 3.6-8 8-8h56c4.4 0 8 3.6 8 8v32h152v-32c0-4.4 3.6-8 8-8h56c4.4 0 8 3.6 8 8v32h68v-576z"  horiz-adv-x="1024" />

    
    <glyph glyph-name="folder" unicode="&#59345;" d="M880 597.6H521L403.7 709.8c-1.5 1.4-3.5 2.2-5.5 2.2H144c-17.7 0-32-14.3-32-32v-592c0-17.7 14.3-32 32-32h736c17.7 0 32 14.3 32 32V565.6c0 17.7-14.3 32-32 32zM840 128H184V640h188.5l119.6-114.4H840V128z"  horiz-adv-x="1024" />

    
    <glyph glyph-name="sliders" unicode="&#59350;" d="M320 672h-66v56c0 4.4-3.6 8-8 8h-52c-4.4 0-8-3.6-8-8v-56h-66c-4.4 0-8-3.6-8-8v-560c0-4.4 3.6-8 8-8h66v-56c0-4.4 3.6-8 8-8h52c4.4 0 8 3.6 8 8v56h66c4.4 0 8 3.6 8 8V664c0 4.4-3.6 8-8 8z m-60-508h-80V604h80v-440zM904 600h-66v96c0 4.4-3.6 8-8 8h-52c-4.4 0-8-3.6-8-8v-96h-66c-4.4 0-8-3.6-8-8v-416c0-4.4 3.6-8 8-8h66v-96c0-4.4 3.6-8 8-8h52c4.4 0 8 3.6 8 8v96h66c4.4 0 8 3.6 8 8V592c0 4.4-3.6 8-8 8z m-60-364h-80V532h80v-296zM612 492h-66V664c0 4.4-3.6 8-8 8h-52c-4.4 0-8-3.6-8-8v-172h-66c-4.4 0-8-3.6-8-8v-200c0-4.4 3.6-8 8-8h66v-172c0-4.4 3.6-8 8-8h52c4.4 0 8 3.6 8 8V276h66c4.4 0 8 3.6 8 8V484c0 4.4-3.6 8-8 8z m-60-145c0-1.6-1.3-3-3-3h-74c-1.6 0-3 1.3-3 3v74c0 1.6 1.3 3 3 3h74c1.6 0 3-1.3 3-3v-74z"  horiz-adv-x="1024" />

    
    <glyph glyph-name="mail" unicode="&#59358;" d="M928 736H96c-17.7 0-32-14.3-32-32v-640c0-17.7 14.3-32 32-32h832c17.7 0 32 14.3 32 32V704c0 17.7-14.3 32-32 32z m-40-110.8V104H136V625.2l-27.6 21.5 39.3 50.5 42.8-33.3h643.1l42.8 33.3 39.3-50.5-27.7-21.5zM833.6 664L512 414 190.4 664l-42.8 33.3-39.3-50.5 27.6-21.5 341.6-265.6c20.2-15.7 48.5-15.7 68.7 0L888 625.2l27.6 21.5-39.3 50.5-42.7-33.2z"  horiz-adv-x="1024" />

    
    <glyph glyph-name="highlight" unicode="&#59361;" d="M957.6 388.6L603.2 737.8c-3.1 3.1-8.1 3.1-11.2 0L353.3 502.6c-3.1-3.1-3.2-8.2-0.1-11.3l0.1-0.1 40-39.4-117.2-115.3c-3.1-3.1-3.2-8.2-0.1-11.3l0.1-0.1 39.5-38.9-189.1-187H72.1c-4.4 0-8.1-3.6-8.1-8V36c0-4.4 3.6-8 8-8h344.9c2.1 0 4.1 0.8 5.6 2.3l76.1 75.6 40.4-39.8c3.1-3.1 8.1-3.1 11.2 0l117.1 115.6 40.1-39.5c3.1-3.1 8.1-3.1 11.2 0l238.7 235.2c3.4 3 3.4 8 0.3 11.2zM389.8 99.8H229.6l134.4 133 80.1-78.9-54.3-54.1z m154.8 62.1L373.2 330.8l68.6 67.6 171.4-168.9-68.6-67.6zM713.1 238L450.3 496.9 597.6 642l262.8-259-147.3-145z"  horiz-adv-x="1024" />

    
    <glyph glyph-name="link" unicode="&#59362;" d="M574 230.6c-3.1 3.1-8.2 3.1-11.3 0L446.5 114.4c-53.8-53.8-144.6-59.5-204 0-59.5 59.5-53.8 150.2 0 204l116.2 116.2c3.1 3.1 3.1 8.2 0 11.3l-39.8 39.8c-3.1 3.1-8.2 3.1-11.3 0L191.4 369.5c-84.6-84.6-84.6-221.5 0-306s221.5-84.6 306 0l116.2 116.2c3.1 3.1 3.1 8.2 0 11.3L574 230.6zM832.6 704.6c-84.6 84.6-221.5 84.6-306 0L410.3 588.4c-3.1-3.1-3.1-8.2 0-11.3l39.7-39.7c3.1-3.1 8.2-3.1 11.3 0l116.2 116.2c53.8 53.8 144.6 59.5 204 0 59.5-59.5 53.8-150.2 0-204L665.3 333.4c-3.1-3.1-3.1-8.2 0-11.3l39.8-39.8c3.1-3.1 8.2-3.1 11.3 0l116.2 116.2c84.5 84.6 84.5 221.5 0 306.1zM610.1 523.7c-3.1 3.1-8.2 3.1-11.3 0L372.3 297.3c-3.1-3.1-3.1-8.2 0-11.3l39.6-39.6c3.1-3.1 8.2-3.1 11.3 0l226.4 226.4c3.1 3.1 3.1 8.2 0 11.3l-39.5 39.6z"  horiz-adv-x="1024" />

    
    <glyph glyph-name="tag" unicode="&#59365;" d="M938 437.2l-29.6 312.6c-1.5 16.2-14.4 29-30.6 30.6L565.2 810h-0.4c-3.2 0-5.7-1-7.6-2.9L88.9 338.8c-3.9-3.9-3.9-10.2 0-14.1l363.8-363.8c1.9-1.9 4.4-2.9 7.1-2.9s5.2 1 7.1 2.9l468.3 468.3c2 2.1 3 5 2.8 8zM459.7 61.3L189.3 331.7 589 731.4 836 708l23.4-247-399.7-399.7zM680 640c-48.5 0-88-39.5-88-88s39.5-88 88-88 88 39.5 88 88-39.5 88-88 88z m0-120c-17.7 0-32 14.3-32 32s14.3 32 32 32 32-14.3 32-32-14.3-32-32-32z"  horiz-adv-x="1024" />

    
    <glyph glyph-name="tags" unicode="&#59366;" d="M483.2 105.7L861.4 484c1.7 1.7 2.5 4 2.3 6.3l-25.5 301.4c-0.7 7.8-6.8 13.9-14.6 14.6L522.2 831.7c-2.3 0.2-4.7-0.6-6.3-2.3L137.7 451.2c-3.1-3.1-3.1-8.2 0-11.3l334.2-334.2c3.1-3.2 8.2-3.2 11.3 0z m62.6 651.7l224.6-19 19-224.6L477.5 202 233.9 445.5l311.9 311.9zM605.958852 571.173768a48 48 0 1 1 67.881066 67.883435 48 48 0 1 1-67.881066-67.883435ZM889.7 356.2l-39.6 39.5c-3.1 3.1-8.2 3.1-11.3 0l-362-361.3-237.6 237c-3.1 3.1-8.2 3.1-11.3 0l-39.6-39.5c-3.1-3.1-3.1-8.2 0-11.3l243.2-242.8 39.6-39.5c3.1-3.1 8.2-3.1 11.3 0l407.3 406.6c3.1 3.1 3.1 8.2 0 11.3z"  horiz-adv-x="1024" />

    
    <glyph glyph-name="fall" unicode="&#59379;" d="M925.9 92l-24 199.2c-0.8 6.6-8.9 9.4-13.6 4.7L829 236.5 557.7 507.7c-6.3 6.2-16.4 6.2-22.6 0L433.3 406 156.6 682.7c-3.1 3.1-8.2 3.1-11.3 0l-45-45.2c-3.1-3.1-3.1-8.2 0-11.3L422 304.3c6.2-6.3 16.4-6.3 22.6 0L546.4 406l226.1-226-59.3-59.3c-4.7-4.7-1.9-12.8 4.7-13.6l199.2-24c5.1-0.7 9.5 3.7 8.8 8.9z"  horiz-adv-x="1024" />

    
    <glyph glyph-name="swap" unicode="&#59378;" d="M847.9 304H152c-4.4 0-8-3.6-8-8v-60c0-4.4 3.6-8 8-8h605.2L612.9 45c-4.1-5.2-0.4-13 6.3-13h72.5c4.9 0 9.5 2.2 12.6 6.1l168.8 214.1c16.5 21 1.6 51.8-25.2 51.8zM872 540H266.8l144.3 183c4.1 5.2 0.4 13-6.3 13h-72.5c-4.9 0-9.5-2.2-12.6-6.1L150.9 515.8c-16.5-21-1.6-51.8 25.1-51.8h696c4.4 0 8 3.6 8 8v60c0 4.4-3.6 8-8 8z"  horiz-adv-x="1024" />

    
    <glyph glyph-name="rise" unicode="&#59380;" d="M917 684.9l-199.2-24c-6.6-0.8-9.4-8.9-4.7-13.6l59.3-59.3-226-226-101.8 101.7c-6.3 6.3-16.4 6.2-22.6 0L100.3 141.9c-3.1-3.1-3.1-8.2 0-11.3l45-45.2c3.1-3.1 8.2-3.1 11.3 0L433.3 362 535 260.3c6.3-6.2 16.4-6.2 22.6 0L829 531.5l59.3-59.3c4.7-4.7 12.8-1.9 13.6 4.7l24 199.2c0.7 5.1-3.7 9.5-8.9 8.8z"  horiz-adv-x="1024" />

    
    <glyph glyph-name="align-right" unicode="&#59381;" d="M904 738H408c-4.4 0-8-3.6-8-8v-56c0-4.4 3.6-8 8-8h496c4.4 0 8 3.6 8 8v56c0 4.4-3.6 8-8 8zM904 314H408c-4.4 0-8-3.6-8-8v-56c0-4.4 3.6-8 8-8h496c4.4 0 8 3.6 8 8v56c0 4.4-3.6 8-8 8zM904 102H120c-4.4 0-8-3.6-8-8v-56c0-4.4 3.6-8 8-8h784c4.4 0 8 3.6 8 8v56c0 4.4-3.6 8-8 8zM904 526H120c-4.4 0-8-3.6-8-8v-56c0-4.4 3.6-8 8-8h784c4.4 0 8 3.6 8 8v56c0 4.4-3.6 8-8 8z"  horiz-adv-x="1024" />

    
    <glyph glyph-name="align-center" unicode="&#59382;" d="M264 666h496c4.4 0 8 3.6 8 8v56c0 4.4-3.6 8-8 8H264c-4.4 0-8-3.6-8-8v-56c0-4.4 3.6-8 8-8zM760 242c4.4 0 8 3.6 8 8v56c0 4.4-3.6 8-8 8H264c-4.4 0-8-3.6-8-8v-56c0-4.4 3.6-8 8-8h496zM904 102H120c-4.4 0-8-3.6-8-8v-56c0-4.4 3.6-8 8-8h784c4.4 0 8 3.6 8 8v56c0 4.4-3.6 8-8 8zM904 526H120c-4.4 0-8-3.6-8-8v-56c0-4.4 3.6-8 8-8h784c4.4 0 8 3.6 8 8v56c0 4.4-3.6 8-8 8z"  horiz-adv-x="1024" />

    
    <glyph glyph-name="align-left" unicode="&#59383;" d="M120 666h496c4.4 0 8 3.6 8 8v56c0 4.4-3.6 8-8 8H120c-4.4 0-8-3.6-8-8v-56c0-4.4 3.6-8 8-8zM120 242h496c4.4 0 8 3.6 8 8v56c0 4.4-3.6 8-8 8H120c-4.4 0-8-3.6-8-8v-56c0-4.4 3.6-8 8-8zM904 102H120c-4.4 0-8-3.6-8-8v-56c0-4.4 3.6-8 8-8h784c4.4 0 8 3.6 8 8v56c0 4.4-3.6 8-8 8zM904 526H120c-4.4 0-8-3.6-8-8v-56c0-4.4 3.6-8 8-8h784c4.4 0 8 3.6 8 8v56c0 4.4-3.6 8-8 8z"  horiz-adv-x="1024" />

    
    <glyph glyph-name="bold" unicode="&#59384;" d="M697.8 414.6c33.6 35 54.2 82.3 54.2 134.3v10.2C752 666.7 663.9 754 555.3 754H259.4c-15.1 0-27.4-12.3-27.4-27.4v-679.1c0-16.3 13.2-29.5 29.5-29.5h318.7c117 0 211.8 94.2 211.8 210.5v11c0 73-37.4 137.3-94.2 175.1zM328 658h224.7c57.1 0 103.3-44.4 103.3-99.3v-9.5c0-54.8-46.3-99.3-103.3-99.3H328V658z m366.6-429.4c0-62.9-51.7-113.9-115.5-113.9H328V353.3h251.1c63.8 0 115.5-51 115.5-113.9v-10.8z"  horiz-adv-x="1024" />

    
    <glyph glyph-name="font-colors" unicode="&#59385;" d="M904 80H120c-4.4 0-8-3.6-8-8v-80c0-4.4 3.6-8 8-8h784c4.4 0 8 3.6 8 8v80c0 4.4-3.6 8-8 8zM253.7 160h85c4.2 0 8 2.7 9.3 6.8l53.7 166h219.2l53.2-166c1.3-4 5-6.8 9.3-6.8h89.1c1.1 0 2.2 0.2 3.2 0.5 5.1 1.8 7.8 7.3 6 12.4L573.6 777.4c-1.4 3.9-5.1 6.6-9.2 6.6H462.1c-4.2 0-7.9-2.6-9.2-6.6L244.5 172.9c-0.4-1-0.5-2.1-0.5-3.2-0.1-5.3 4.3-9.7 9.7-9.7z m255.9 516.1h4.1l83.8-263.8H424.9l84.7 263.8z"  horiz-adv-x="1024" />

    
    <glyph glyph-name="font-size" unicode="&#59386;" d="M920 480H616c-4.4 0-8-3.6-8-8v-112c0-4.4 3.6-8 8-8h48c4.4 0 8 3.6 8 8v56h60v-320h-46c-4.4 0-8-3.6-8-8v-48c0-4.4 3.6-8 8-8h164c4.4 0 8 3.6 8 8v48c0 4.4-3.6 8-8 8h-46V416h60v-56c0-4.4 3.6-8 8-8h48c4.4 0 8 3.6 8 8V472c0 4.4-3.6 8-8 8zM656 600V728c0 4.4-3.6 8-8 8H104c-4.4 0-8-3.6-8-8v-128c0-4.4 3.6-8 8-8h56c4.4 0 8 3.6 8 8v64h168v-560h-92c-4.4 0-8-3.6-8-8v-56c0-4.4 3.6-8 8-8h264c4.4 0 8 3.6 8 8v56c0 4.4-3.6 8-8 8h-92V664h168v-64c0-4.4 3.6-8 8-8h56c4.4 0 8 3.6 8 8z"  horiz-adv-x="1024" />

    
    <glyph glyph-name="enter" unicode="&#59389;" d="M864 726h-60c-4.4 0-8-3.6-8-8v-518H310v73c0 6.7-7.8 10.5-13 6.3l-141.9-112c-4.1-3.2-4.1-9.4 0-12.6l141.9-112c5.3-4.2 13-0.4 13 6.3v75h498c35.3 0 64 28.7 64 64V718c0 4.4-3.6 8-8 8z"  horiz-adv-x="1024" />

    
    <glyph glyph-name="question" unicode="&#59391;" d="M764 615.1c-14 30.6-33.9 58.1-59.3 81.6C653.1 744.6 584.6 771 512 771s-141.1-26.4-192.7-74.2c-25.4-23.6-45.3-51-59.3-81.7-14.6-32-22-65.9-22-100.9v-27c0-6.2 5-11.2 11.2-11.2h54c6.2 0 11.2 5 11.2 11.2v27c0 99.5 88.6 180.4 197.6 180.4s197.6-80.9 197.6-180.4c0-40.8-14.5-79.2-42-111.2-27.2-31.7-65.6-54.4-108.1-64-24.3-5.5-46.2-19.2-61.7-38.8-15.4-19.4-23.9-43.8-23.9-68.6v-31.4c0-6.2 5-11.2 11.2-11.2h54c6.2 0 11.2 5 11.2 11.2v31.4c0 15.7 10.9 29.5 26 32.9 58.4 13.2 111.4 44.7 149.3 88.7 19.1 22.3 34 47.1 44.3 74 10.7 27.9 16.1 57.2 16.1 87 0 35-7.4 69-22 100.9zM512 109c-30.9 0-56-25.1-56-56s25.1-56 56-56 56 25.1 56 56-25.1 56-56 56z"  horiz-adv-x="1024" />

    
    <glyph glyph-name="rollback" unicode="&#59390;" d="M793 654H366v74c0 6.7-7.7 10.4-12.9 6.3l-142-112c-4.1-3.2-4.1-9.4 0-12.6l142-112c5.2-4.1 12.9-0.4 12.9 6.3v74h415v-470H175c-4.4 0-8-3.6-8-8v-60c0-4.4 3.6-8 8-8h618c35.3 0 64 28.7 64 64V590c0 35.3-28.7 64-64 64z"  horiz-adv-x="1024" />

    
    <glyph glyph-name="drag" unicode="&#59458;" d="M909.3 389.7L781.7 490.4c-4.7 3.7-11.7 0.4-11.7-5.7V420H548V642h64.8c6 0 9.4 7 5.7 11.7L517.7 781.3c-2.9 3.7-8.5 3.7-11.3 0L405.6 653.7c-3.7-4.7-0.4-11.7 5.7-11.7H476v-222H254v64.8c0 6-7 9.4-11.7 5.7L114.7 389.7c-3.7-2.9-3.7-8.5 0-11.3l127.5-100.8c4.7-3.7 11.7-0.4 11.7 5.7V348h222v-222h-64.8c-6 0-9.4-7-5.7-11.7l100.8-127.5c2.9-3.7 8.5-3.7 11.3 0l100.8 127.5c3.7 4.7 0.4 11.7-5.7 11.7H548V348h222v-64.8c0-6 7-9.4 11.7-5.7l127.5 100.8c3.7 2.9 3.7 8.5 0.1 11.4z"  horiz-adv-x="1024" />

    
    <glyph glyph-name="stop" unicode="&#59459;" d="M512 832C264.6 832 64 631.4 64 384s200.6-448 448-448 448 200.6 448 448S759.4 832 512 832z m0-820c-205.4 0-372 166.6-372 372 0 89 31.3 170.8 83.5 234.8l523.3-523.3C682.8 43.3 601 12 512 12z m288.5 137.2L277.2 672.5C341.2 724.7 423 756 512 756c205.4 0 372-166.6 372-372 0-89-31.3-170.8-83.5-234.8z"  horiz-adv-x="1024" />

    
    <glyph glyph-name="exclamation" unicode="&#59268;" d="M469.333333 682.666667h85.333334v-426.24h-85.333334z m0-511.872h85.333334V85.333333h-85.333334z"  horiz-adv-x="1024" />

    
    <glyph glyph-name="italic" unicode="&#59309;" d="M768 640V725.333333h-341.333333v-85.333333h114.090666L394.453333 128H256v-85.333333h341.333333v85.333333h-114.090666l146.304 512z"  horiz-adv-x="1024" />

    
    <glyph glyph-name="zoomout" unicode="&#59543;" d="M637 453H325c-4.4 0-8-3.6-8-8v-60c0-4.4 3.6-8 8-8h312c4.4 0 8 3.6 8 8v60c0 4.4-3.6 8-8 8zM921 29L775 175c122.1 148.9 113.6 369.5-26 509-148 148.1-388.4 148.1-537 0-148.1-148.6-148.1-389 0-537 139.5-139.6 360.1-148.1 509-26l146-146c3.2-2.8 8.3-2.8 11 0l43 43c2.8 2.7 2.8 7.8 0 11zM696 200c-118.8-118.7-311.2-118.7-430 0-118.7 118.8-118.7 311.2 0 430 118.8 118.7 311.2 118.7 430 0 118.7-118.8 118.7-311.2 0-430z"  horiz-adv-x="1024" />

    
    <glyph glyph-name="zoomin" unicode="&#59544;" d="M637 453H519V587c0 4.4-3.6 8-8 8h-60c-4.4 0-8-3.6-8-8v-134H325c-4.4 0-8-3.6-8-8v-60c0-4.4 3.6-8 8-8h118v-134c0-4.4 3.6-8 8-8h60c4.4 0 8 3.6 8 8V377h118c4.4 0 8 3.6 8 8v60c0 4.4-3.6 8-8 8zM921 29L775 175c122.1 148.9 113.6 369.5-26 509-148 148.1-388.4 148.1-537 0-148.1-148.6-148.1-389 0-537 139.5-139.6 360.1-148.1 509-26l146-146c3.2-2.8 8.3-2.8 11 0l43 43c2.8 2.7 2.8 7.8 0 11zM696 200c-118.8-118.7-311.2-118.7-430 0-118.7 118.8-118.7 311.2 0 430 118.8 118.7 311.2 118.7 430 0 118.7-118.8 118.7-311.2 0-430z"  horiz-adv-x="1024" />

    
    <glyph glyph-name="arrow_down" unicode="&#59364;" d="M854.6 329.4l-320-320-0.2-0.2c-0.3-0.3-0.6-0.6-1-0.9-0.2-0.2-0.4-0.4-0.6-0.5-0.2-0.2-0.4-0.3-0.6-0.5-0.3-0.2-0.5-0.4-0.8-0.6-0.2-0.1-0.3-0.2-0.5-0.3l-0.9-0.6c-0.1-0.1-0.3-0.2-0.4-0.3l-0.9-0.6c-0.1-0.1-0.3-0.2-0.4-0.3-0.3-0.2-0.6-0.3-0.9-0.5-0.2-0.1-0.3-0.2-0.5-0.3-0.3-0.2-0.6-0.3-0.9-0.4l-0.6-0.3c-0.3-0.1-0.5-0.2-0.8-0.4-0.2-0.1-0.4-0.2-0.7-0.3-0.2-0.1-0.5-0.2-0.7-0.3-0.3-0.1-0.5-0.2-0.8-0.3-0.2-0.1-0.4-0.1-0.6-0.2l-0.9-0.3c-0.2-0.1-0.4-0.1-0.6-0.2-0.3-0.1-0.6-0.2-1-0.3-0.2 0-0.4-0.1-0.5-0.1-0.3-0.1-0.7-0.2-1-0.2-0.2 0-0.4-0.1-0.6-0.1-0.3-0.1-0.7-0.1-1-0.2-0.2 0-0.4-0.1-0.6-0.1-0.3 0-0.6-0.1-0.9-0.1-0.3 0-0.6 0-0.9-0.1h-0.7c-1.1-0.1-2.1-0.1-3.2 0h-0.7c-0.3 0-0.6 0-0.9 0.1-0.3 0-0.6 0.1-0.9 0.1-0.2 0-0.4 0.1-0.6 0.1-0.3 0-0.7 0.1-1 0.2-0.2 0-0.4 0.1-0.6 0.1-0.3 0.1-0.7 0.1-1 0.2-0.2 0-0.4 0.1-0.5 0.1-0.3 0.1-0.6 0.2-1 0.3-0.2 0.1-0.4 0.1-0.6 0.2l-0.9 0.3c-0.2 0.1-0.4 0.1-0.6 0.2-0.3 0.1-0.5 0.2-0.8 0.3-0.2 0.1-0.5 0.2-0.7 0.3-0.2 0.1-0.4 0.2-0.7 0.3-0.3 0.1-0.5 0.2-0.8 0.4l-0.6 0.3c-0.3 0.1-0.6 0.3-0.8 0.4-0.2 0.1-0.3 0.2-0.5 0.3-0.3 0.2-0.6 0.3-0.9 0.5-0.1 0.1-0.3 0.2-0.4 0.3l-0.9 0.6c-0.1 0.1-0.3 0.2-0.4 0.3-0.3 0.2-0.6 0.4-0.8 0.6-0.2 0.1-0.3 0.3-0.5 0.4-0.2 0.2-0.5 0.4-0.7 0.6-0.2 0.2-0.4 0.4-0.6 0.5-0.2 0.2-0.4 0.3-0.6 0.5-0.4 0.4-0.8 0.7-1.2 1.1l-320 320c-12.5 12.5-12.5 32.8 0 45.3s32.8 12.5 45.3 0l266-265.5V736c0 17.7 14.3 32 32 32s32-14.3 32-32v-626.7l265.4 265.4c6.2 6.2 14.4 9.4 22.6 9.4s16.4-3.1 22.6-9.4c12.5-12.6 12.5-32.8 0-45.3z"  horiz-adv-x="1024" />

    
    <glyph glyph-name="plus" unicode="&#59433;" d="M576 832H448v-384H64v-128h384v-384h128V320h384V448H576z"  horiz-adv-x="1024" />

    
    <glyph glyph-name="down" unicode="&#58884;" d="M884 640h-75c-5.1 0-9.9-2.5-12.9-6.6L512 241.8 227.9 633.4c-3 4.1-7.8 6.6-12.9 6.6h-75c-6.5 0-10.3-7.4-6.5-12.7l352.6-486.1c12.8-17.6 39-17.6 51.7 0l352.6 486.1c3.9 5.3 0.1 12.7-6.4 12.7z"  horiz-adv-x="1024" />

    
    <glyph glyph-name="left" unicode="&#58886;" d="M724 677.7V755c0 6.7-7.7 10.4-12.9 6.3L260.3 409.2c-16.4-12.8-16.4-37.5 0-50.3l450.8-352.1c5.3-4.1 12.9-0.4 12.9 6.3v77.3c0 4.9-2.3 9.6-6.1 12.6l-360 281 360 281.1c3.8 3 6.1 7.7 6.1 12.6z"  horiz-adv-x="1024" />

    
    <glyph glyph-name="caret-down" unicode="&#59628;" d="M840.4 596H183.6c-19.7 0-30.7-20.8-18.5-35l328.4-380.8c9.4-10.9 27.5-10.9 37 0L858.9 561c12.2 14.2 1.2 35-18.5 35z"  horiz-adv-x="1024" />

    
    <glyph glyph-name="caret-right" unicode="&#59629;" d="M715.8 402.5L335 730.9c-14.2 12.2-35 1.2-35-18.5v-656.8c0-19.7 20.8-30.7 35-18.5l380.8 328.4c10.9 9.4 10.9 27.6 0 37z"  horiz-adv-x="1024" />

    
    <glyph glyph-name="retweet" unicode="&#59631;" d="M136 344h63.6c4.4 0 8 3.6 8 8V607.3h528.6v-72.6c0-1.9 0.6-3.7 1.8-5.2 2.9-3.6 8.1-4.3 11.7-1.4L893 640.6c4.3 5 3.6 10.3 0 13.2L749.7 766.2c-1.5 1.2-3.3 1.8-5.2 1.8-4.6 0-8.4-3.8-8.4-8.4V687H199.7c-39.5 0-71.7-32.2-71.7-71.8V352c0-4.4 3.6-8 8-8z m752 80h-63.6c-4.4 0-8-3.6-8-8v-255.3H287.8v72.6c0 1.9-0.6 3.7-1.8 5.2-2.9 3.6-8.1 4.3-11.7 1.4L131 127.4c-4.3-5-3.6-10.3 0-13.2l143.3-112.4c1.5-1.2 3.3-1.8 5.2-1.8 4.6 0 8.4 3.8 8.4 8.4V81h536.6c39.5 0 71.7 32.2 71.7 71.8V416c-0.2 4.4-3.8 8-8.2 8z"  horiz-adv-x="1024" />

    
    <glyph glyph-name="step-backward" unicode="&#59632;" d="M347.591 367.05l383.21-301.024C745.05 54.834 766 64.922 766 82.976v602.05c0 18.05-20.95 28.14-35.199 16.948l-383.21-301.023c-11.01-8.65-11.01-25.252 0-33.901M330 32h-64a8 8 0 0 0-8 8V728a8 8 0 0 0 8 8h64a8 8 0 0 0 8-8v-688a8 8 0 0 0-8-8"  horiz-adv-x="1024" />

    
    <glyph glyph-name="swap-right" unicode="&#59633;" d="M873.1 299.8l-164 208C703 515.5 693.8 520 684 520h-64.8c-6.7 0-10.4-7.7-6.3-13l144.3-183H152c-4.4 0-8-3.6-8-8v-60c0-4.4 3.6-8 8-8h695.9c26.8 0 41.7 30.8 25.2 51.8z"  horiz-adv-x="1024" />

    
    <glyph glyph-name="fast-forward" unicode="&#59119;" d="M793.8 396.7L506.4 622.5c-10.7 8.4-26.4 0.8-26.4-12.7v-451.6c0-13.5 15.7-21.1 26.4-12.7l287.4 225.8a16.14 16.14 0 0 1 0 25.4z m-320 0L186.4 622.5c-10.7 8.4-26.4 0.8-26.4-12.7v-451.5c0-13.5 15.7-21.1 26.4-12.7l287.4 225.8c4.1 3.2 6.2 8 6.2 12.7 0 4.6-2.1 9.4-6.2 12.6zM857.6 648h-51.2c-3.5 0-6.4-2.7-6.4-6v-516c0-3.3 2.9-6 6.4-6h51.2c3.5 0 6.4 2.7 6.4 6V642c0 3.3-2.9 6-6.4 6z"  horiz-adv-x="1024" />

    
    <glyph glyph-name="fast-backward" unicode="&#59121;" d="M517.6 622.5L230.2 396.7a16.14 16.14 0 0 1 0-25.4l287.4-225.8c10.7-8.4 26.4-0.8 26.4 12.7V609.8c0 13.5-15.7 21.1-26.4 12.7z m320 0L550.2 396.7a16.14 16.14 0 0 1 0-25.4l287.4-225.8c10.7-8.4 26.4-0.8 26.4 12.7V609.8c0 13.5-15.7 21.1-26.4 12.7z m-620 25.5h-51.2c-3.5 0-6.4-2.7-6.4-6v-516c0-3.3 2.9-6 6.4-6h51.2c3.5 0 6.4 2.7 6.4 6V642c0 3.3-2.9 6-6.4 6z"  horiz-adv-x="1024" />

    
    <glyph glyph-name="step-forward" unicode="&#59145;" d="M676.4 367.05L293.2 66.03c-14.25-11.2-35.2-1.1-35.2 16.95V685.03c0 18.05 20.95 28.14 35.2 16.94l383.2-301.02a21.53 21.53 0 0 0 0-33.9M694 32h64a8 8 0 0 1 8 8V728a8 8 0 0 1-8 8h-64a8 8 0 0 1-8-8v-688a8 8 0 0 1 8-8"  horiz-adv-x="1024" />

    
    <glyph glyph-name="area-chart" unicode="&#59169;" d="M941.714286 64H155.428571V777.142857c0 5.028571-4.114286 9.142857-9.142857 9.142857h-64c-5.028571 0-9.142857-4.114286-9.142857-9.142857v-786.285714c0-5.028571 4.114286-9.142857 9.142857-9.142857h859.428572c5.028571 0 9.142857 4.114286 9.142857 9.142857v64c0 5.028571-4.114286 9.142857-9.142857 9.142857z m-704 73.142857h612.571428c5.028571 0 9.142857 4.114286 9.142857 9.142857V644.571429c0 8.228571-9.942857 12.228571-15.657142 6.514285L603.428571 410.742857l-143.314285 141.714286a9.177143 9.177143 0 0 1-12.914286 0l-216-216.685714a8.994286 8.994286 0 0 1-2.628571-6.4V146.285714c0-5.028571 4.114286-9.142857 9.142857-9.142857z"  horiz-adv-x="1024" />

    
    <glyph glyph-name="arrow-right" unicode="&#59159;" d="M920 411.657143L488.228571 786.4c-3.314286 2.857143-7.542857 4.457143-12 4.457143h-101.142857c-8.457143 0-12.342857-10.514286-5.942857-16l400.228572-347.428572H100.571429c-5.028571 0-9.142857-4.114286-9.142858-9.142857v-68.571428c0-5.028571 4.114286-9.142857 9.142858-9.142857h668.685714L369.028571-6.857143c-6.4-5.6-2.514286-16 5.942858-16h104.571428c2.171429 0 4.342857 0.8 5.942857 2.285714L920 356.342857a36.651429 36.651429 0 0 1 0 55.314286z"  horiz-adv-x="1024" />

    
    <glyph glyph-name="arrows-alt" unicode="&#59160;" d="M904 786.171429l-216.228571-26.857143c-7.542857-0.914286-10.628571-10.057143-5.371429-15.428572l62.514286-62.514285-175.428572-175.428572a9.177143 9.177143 0 0 1 0-12.914286l51.542857-51.542857c3.542857-3.542857 9.371429-3.542857 12.914286 0l175.542857 175.542857 62.514286-62.514285a9.074286 9.074286 0 0 1 15.428571 5.371428L914.171429 776a9.028571 9.028571 0 0 1-10.171429 10.171429zM402.971429 326.514286a9.177143 9.177143 0 0 1-12.914286 0L214.628571 150.971429l-62.514285 62.514285a9.074286 9.074286 0 0 1-15.428572-5.371428L109.828571-8c-0.685714-5.942857 4.228571-10.857143 10.171429-10.171429l216.228571 26.857143c7.542857 0.914286 10.628571 10.057143 5.371429 15.428572l-62.514286 62.514285 175.542857 175.542858c3.542857 3.542857 3.542857 9.371429 0 12.914285l-51.657142 51.428572z"  horiz-adv-x="1024" />

    
    <glyph glyph-name="arrow-up" unicode="&#59161;" d="M918.857143 345.714286L539.542857 782.857143a36.525714 36.525714 0 0 1-55.2 0L105.142857 345.714286a9.108571 9.108571 0 0 1 6.857143-15.085715h92.571429c5.257143 0 10.285714 2.285714 13.828571 6.285715L468.571429 625.257143V-18.285714c0-5.028571 4.114286-9.142857 9.142857-9.142857h68.571428c5.028571 0 9.142857 4.114286 9.142857 9.142857V625.257143l250.171429-288.342857c3.428571-4 8.457143-6.285714 13.828571-6.285715h92.571429c7.771429 0 12 9.142857 6.857143 15.085715z"  horiz-adv-x="1024" />

    
    <glyph glyph-name="arrow-left" unicode="&#59162;" d="M923.428571 427.428571H254.742857l400.228572 347.428572c6.4 5.6 2.514286 16-5.942858 16h-101.142857c-4.457143 0-8.685714-1.6-12-4.457143L104 411.657143a36.525714 36.525714 0 0 1 0-55.2L538.4-20.571429c1.714286-1.485714 3.771429-2.285714 5.942857-2.285714h104.571429c8.457143 0 12.342857 10.514286 5.942857 16L254.742857 340.571429H923.428571c5.028571 0 9.142857 4.114286 9.142858 9.142857v68.571428c0 5.028571-4.114286 9.142857-9.142858 9.142857z"  horiz-adv-x="1024" />

    
    <glyph glyph-name="audit" unicode="&#59182;" d="M265.142857 683.428571c-5.028571 0-9.142857-4.114286-9.142857-9.142857v-54.857143c0-5.028571 4.114286-9.142857 9.142857-9.142857h438.857143c5.028571 0 9.142857 4.114286 9.142857 9.142857v54.857143c0 5.028571-4.114286 9.142857-9.142857 9.142857H265.142857z m210.285714-164.571428H265.142857c-5.028571 0-9.142857-4.114286-9.142857-9.142857v-54.857143c0-5.028571 4.114286-9.142857 9.142857-9.142857h210.285714c5.028571 0 9.142857 4.114286 9.142858 9.142857v54.857143c0 5.028571-4.114286 9.142857-9.142858 9.142857z m-54.857142-523.428572H164.571429V800h640v-365.714286c0-5.028571 4.114286-9.142857 9.142857-9.142857h64c5.028571 0 9.142857 4.114286 9.142857 9.142857V845.714286c0 20.228571-16.342857 36.571429-36.571429 36.571428H118.857143c-20.228571 0-36.571429-16.342857-36.571429-36.571428v-896c0-20.228571 16.342857-36.571429 36.571429-36.571429h301.714286c5.028571 0 9.142857 4.114286 9.142857 9.142857v64c0 5.028571-4.114286 9.142857-9.142857 9.142857z m502.857142 100.571429H758.857143v41.828571c52.914286 15.771429 91.428571 64.685714 91.428571 122.742858 0 70.742857-57.257143 128-128 128s-128-57.257143-128-128c0-57.942857 38.514286-106.971429 91.428572-122.742858V96H521.142857c-10.057143 0-18.285714-8.228571-18.285714-18.285714v-173.714286c0-10.057143 8.228571-18.285714 18.285714-18.285714h402.285714c10.057143 0 18.285714 8.228571 18.285715 18.285714V77.714286c0 10.057143-8.228571 18.285714-18.285715 18.285714zM665.142857 260.571429c0 31.542857 25.6 57.142857 57.142857 57.142857s57.142857-25.6 57.142857-57.142857-25.6-57.142857-57.142857-57.142858-57.142857 25.6-57.142857 57.142858z m205.714286-304H573.714286v68.571428h297.142857v-68.571428z"  horiz-adv-x="1024" />

    
    <glyph glyph-name="bg-colors" unicode="&#59170;" d="M802.742857 118.514286c49.942857 0 90.742857 41.371429 90.742857 92 0 61.142857-90.742857 160.914286-90.742857 160.914285S712 271.657143 712 210.514286c0-50.628571 40.8-92 90.742857-92z m-430.971428 50.4c8.114286-8.114286 21.257143-8.114286 29.257142 0l292.685715 292.571428c8.114286 8.114286 8.114286 21.257143 0 29.257143l-292.571429 292.571429c-0.685714 0.685714-1.485714 1.371429-2.285714 1.942857l-89.371429 89.371428a10.411429 10.411429 0 0 1-14.628571 0l-54.857143-54.857142a10.411429 10.411429 0 0 1 0-14.628572l76.8-76.8-237.485714-237.6c-8.114286-8.114286-8.114286-21.257143 0-29.257143l292.457143-292.571428z m14.742857 512.685714l204.457143-204.457143H182.171429l204.342857 204.457143zM960 36.571429H64c-5.028571 0-9.142857-4.114286-9.142857-9.142858v-91.428571c0-5.028571 4.114286-9.142857 9.142857-9.142857h896c5.028571 0 9.142857 4.114286 9.142857 9.142857v91.428571c0 5.028571-4.114286 9.142857-9.142857 9.142858z"  horiz-adv-x="1024" />

    
    <glyph glyph-name="bars" unicode="&#59183;" d="M912 704H328c-4.4 0-8-3.6-8-8v-56c0-4.4 3.6-8 8-8h584c4.4 0 8 3.6 8 8v56c0 4.4-3.6 8-8 8z m0-284H328c-4.4 0-8-3.6-8-8v-56c0-4.4 3.6-8 8-8h584c4.4 0 8 3.6 8 8v56c0 4.4-3.6 8-8 8z m0-284H328c-4.4 0-8-3.6-8-8v-56c0-4.4 3.6-8 8-8h584c4.4 0 8 3.6 8 8v56c0 4.4-3.6 8-8 8zM104 668a56 56 0 1 1 112 0 56 56 0 1 1-112 0z m0-284a56 56 0 1 1 112 0 56 56 0 1 1-112 0z m0-284a56 56 0 1 1 112 0 56 56 0 1 1-112 0z"  horiz-adv-x="1024" />

    
    <glyph glyph-name="border-inner" unicode="&#59163;" d="M923.428571 425.142857H553.142857V804.571429h-82.285714v-379.428572H100.571429c-5.028571 0-9.142857-4.114286-9.142858-9.142857v-64c0-5.028571 4.114286-9.142857 9.142858-9.142857h370.285714v-379.428572h82.285714V342.857143h370.285714c5.028571 0 9.142857 4.114286 9.142858 9.142857v64c0 5.028571-4.114286 9.142857-9.142858 9.142857z m0 189.714286h-64c-5.028571 0-9.142857-4.114286-9.142857-9.142857v-64c0-5.028571 4.114286-9.142857 9.142857-9.142857h64c5.028571 0 9.142857 4.114286 9.142858 9.142857v64c0 5.028571-4.114286 9.142857-9.142858 9.142857z m0-569.142857h-64c-5.028571 0-9.142857-4.114286-9.142857-9.142857v-64c0-5.028571 4.114286-9.142857 9.142857-9.142858h64c5.028571 0 9.142857 4.114286 9.142858 9.142858v64c0 5.028571-4.114286 9.142857-9.142858 9.142857z m0 758.857143h-64c-5.028571 0-9.142857-4.114286-9.142857-9.142858v-64c0-5.028571 4.114286-9.142857 9.142857-9.142857h64c5.028571 0 9.142857 4.114286 9.142858 9.142857v64c0 5.028571-4.114286 9.142857-9.142858 9.142858z m0-569.142858h-64c-5.028571 0-9.142857-4.114286-9.142857-9.142857v-64c0-5.028571 4.114286-9.142857 9.142857-9.142857h64c5.028571 0 9.142857 4.114286 9.142858 9.142857v64c0 5.028571-4.114286 9.142857-9.142858 9.142857zM669.714286 722.285714h64c5.028571 0 9.142857 4.114286 9.142857 9.142857v64c0 5.028571-4.114286 9.142857-9.142857 9.142858h-64c-5.028571 0-9.142857-4.114286-9.142857-9.142858v-64c0-5.028571 4.114286-9.142857 9.142857-9.142857z m64-676.571428h-64c-5.028571 0-9.142857-4.114286-9.142857-9.142857v-64c0-5.028571 4.114286-9.142857 9.142857-9.142858h64c5.028571 0 9.142857 4.114286 9.142857 9.142858v64c0 5.028571-4.114286 9.142857-9.142857 9.142857z m-379.428572 0h-64c-5.028571 0-9.142857-4.114286-9.142857-9.142857v-64c0-5.028571 4.114286-9.142857 9.142857-9.142858h64c5.028571 0 9.142857 4.114286 9.142857 9.142858v64c0 5.028571-4.114286 9.142857-9.142857 9.142857z m-64 676.571428h64c5.028571 0 9.142857 4.114286 9.142857 9.142857v64c0 5.028571-4.114286 9.142857-9.142857 9.142858h-64c-5.028571 0-9.142857-4.114286-9.142857-9.142858v-64c0-5.028571 4.114286-9.142857 9.142857-9.142857z m-189.714285 0h64c5.028571 0 9.142857 4.114286 9.142857 9.142857v64c0 5.028571-4.114286 9.142857-9.142857 9.142858h-64c-5.028571 0-9.142857-4.114286-9.142858-9.142858v-64c0-5.028571 4.114286-9.142857 9.142858-9.142857z m64-676.571428h-64c-5.028571 0-9.142857-4.114286-9.142858-9.142857v-64c0-5.028571 4.114286-9.142857 9.142858-9.142858h64c5.028571 0 9.142857 4.114286 9.142857 9.142858v64c0 5.028571-4.114286 9.142857-9.142857 9.142857z m-64 486.857143h64c5.028571 0 9.142857 4.114286 9.142857 9.142857v64c0 5.028571-4.114286 9.142857-9.142857 9.142857h-64c-5.028571 0-9.142857-4.114286-9.142858-9.142857v-64c0-5.028571 4.114286-9.142857 9.142858-9.142857z m64-297.142858h-64c-5.028571 0-9.142857-4.114286-9.142858-9.142857v-64c0-5.028571 4.114286-9.142857 9.142858-9.142857h64c5.028571 0 9.142857 4.114286 9.142857 9.142857v64c0 5.028571-4.114286 9.142857-9.142857 9.142857z"  horiz-adv-x="1024" />

    
    <glyph glyph-name="border-verticle" unicode="&#59164;" d="M923.428571 425.142857H100.571429c-5.028571 0-9.142857-4.114286-9.142858-9.142857v-64c0-5.028571 4.114286-9.142857 9.142858-9.142857h822.857142c5.028571 0 9.142857 4.114286 9.142858 9.142857v64c0 5.028571-4.114286 9.142857-9.142858 9.142857z m0 189.714286h-64c-5.028571 0-9.142857-4.114286-9.142857-9.142857v-64c0-5.028571 4.114286-9.142857 9.142857-9.142857h64c5.028571 0 9.142857 4.114286 9.142858 9.142857v64c0 5.028571-4.114286 9.142857-9.142858 9.142857z m0-569.142857h-64c-5.028571 0-9.142857-4.114286-9.142857-9.142857v-64c0-5.028571 4.114286-9.142857 9.142857-9.142858h64c5.028571 0 9.142857 4.114286 9.142858 9.142858v64c0 5.028571-4.114286 9.142857-9.142858 9.142857z m0 758.857143h-64c-5.028571 0-9.142857-4.114286-9.142857-9.142858v-64c0-5.028571 4.114286-9.142857 9.142857-9.142857h64c5.028571 0 9.142857 4.114286 9.142858 9.142857v64c0 5.028571-4.114286 9.142857-9.142858 9.142858z m0-569.142858h-64c-5.028571 0-9.142857-4.114286-9.142857-9.142857v-64c0-5.028571 4.114286-9.142857 9.142857-9.142857h64c5.028571 0 9.142857 4.114286 9.142858 9.142857v64c0 5.028571-4.114286 9.142857-9.142858 9.142857zM669.714286 722.285714h64c5.028571 0 9.142857 4.114286 9.142857 9.142857v64c0 5.028571-4.114286 9.142857-9.142857 9.142858h-64c-5.028571 0-9.142857-4.114286-9.142857-9.142858v-64c0-5.028571 4.114286-9.142857 9.142857-9.142857z m64-676.571428h-64c-5.028571 0-9.142857-4.114286-9.142857-9.142857v-64c0-5.028571 4.114286-9.142857 9.142857-9.142858h64c5.028571 0 9.142857 4.114286 9.142857 9.142858v64c0 5.028571-4.114286 9.142857-9.142857 9.142857z m-379.428572 0h-64c-5.028571 0-9.142857-4.114286-9.142857-9.142857v-64c0-5.028571 4.114286-9.142857 9.142857-9.142858h64c5.028571 0 9.142857 4.114286 9.142857 9.142858v64c0 5.028571-4.114286 9.142857-9.142857 9.142857z m-64 676.571428h64c5.028571 0 9.142857 4.114286 9.142857 9.142857v64c0 5.028571-4.114286 9.142857-9.142857 9.142858h-64c-5.028571 0-9.142857-4.114286-9.142857-9.142858v-64c0-5.028571 4.114286-9.142857 9.142857-9.142857z m-189.714285 0h64c5.028571 0 9.142857 4.114286 9.142857 9.142857v64c0 5.028571-4.114286 9.142857-9.142857 9.142858h-64c-5.028571 0-9.142857-4.114286-9.142858-9.142858v-64c0-5.028571 4.114286-9.142857 9.142858-9.142857z m379.428571 0h64c5.028571 0 9.142857 4.114286 9.142857 9.142857v64c0 5.028571-4.114286 9.142857-9.142857 9.142858h-64c-5.028571 0-9.142857-4.114286-9.142857-9.142858v-64c0-5.028571 4.114286-9.142857 9.142857-9.142857zM164.571429 45.714286h-64c-5.028571 0-9.142857-4.114286-9.142858-9.142857v-64c0-5.028571 4.114286-9.142857 9.142858-9.142858h64c5.028571 0 9.142857 4.114286 9.142857 9.142858v64c0 5.028571-4.114286 9.142857-9.142857 9.142857z m379.428571 0h-64c-5.028571 0-9.142857-4.114286-9.142857-9.142857v-64c0-5.028571 4.114286-9.142857 9.142857-9.142858h64c5.028571 0 9.142857 4.114286 9.142857 9.142858v64c0 5.028571-4.114286 9.142857-9.142857 9.142857zM100.571429 532.571429h64c5.028571 0 9.142857 4.114286 9.142857 9.142857v64c0 5.028571-4.114286 9.142857-9.142857 9.142857h-64c-5.028571 0-9.142857-4.114286-9.142858-9.142857v-64c0-5.028571 4.114286-9.142857 9.142858-9.142857z m379.428571 0h64c5.028571 0 9.142857 4.114286 9.142857 9.142857v64c0 5.028571-4.114286 9.142857-9.142857 9.142857h-64c-5.028571 0-9.142857-4.114286-9.142857-9.142857v-64c0-5.028571 4.114286-9.142857 9.142857-9.142857zM164.571429 235.428571h-64c-5.028571 0-9.142857-4.114286-9.142858-9.142857v-64c0-5.028571 4.114286-9.142857 9.142858-9.142857h64c5.028571 0 9.142857 4.114286 9.142857 9.142857v64c0 5.028571-4.114286 9.142857-9.142857 9.142857z m379.428571 0h-64c-5.028571 0-9.142857-4.114286-9.142857-9.142857v-64c0-5.028571 4.114286-9.142857 9.142857-9.142857h64c5.028571 0 9.142857 4.114286 9.142857 9.142857v64c0 5.028571-4.114286 9.142857-9.142857 9.142857z"  horiz-adv-x="1024" />

    
    <glyph glyph-name="border-right" unicode="&#59165;" d="M923.428571 804.571429h-64c-5.028571 0-9.142857-4.114286-9.142857-9.142858v-822.857142c0-5.028571 4.114286-9.142857 9.142857-9.142858h64c5.028571 0 9.142857 4.114286 9.142858 9.142858V795.428571c0 5.028571-4.114286 9.142857-9.142858 9.142858z m-189.714285 0h-64c-5.028571 0-9.142857-4.114286-9.142857-9.142858v-64c0-5.028571 4.114286-9.142857 9.142857-9.142857h64c5.028571 0 9.142857 4.114286 9.142857 9.142857v64c0 5.028571-4.114286 9.142857-9.142857 9.142858z m-569.142857 0h-64c-5.028571 0-9.142857-4.114286-9.142858-9.142858v-64c0-5.028571 4.114286-9.142857 9.142858-9.142857h64c5.028571 0 9.142857 4.114286 9.142857 9.142857v64c0 5.028571-4.114286 9.142857-9.142857 9.142858z m379.428571 0h-64c-5.028571 0-9.142857-4.114286-9.142857-9.142858v-64c0-5.028571 4.114286-9.142857 9.142857-9.142857h64c5.028571 0 9.142857 4.114286 9.142857 9.142857v64c0 5.028571-4.114286 9.142857-9.142857 9.142858z m-189.714286 0h-64c-5.028571 0-9.142857-4.114286-9.142857-9.142858v-64c0-5.028571 4.114286-9.142857 9.142857-9.142857h64c5.028571 0 9.142857 4.114286 9.142857 9.142857v64c0 5.028571-4.114286 9.142857-9.142857 9.142858z m189.714286-189.714286h-64c-5.028571 0-9.142857-4.114286-9.142857-9.142857v-64c0-5.028571 4.114286-9.142857 9.142857-9.142857h64c5.028571 0 9.142857 4.114286 9.142857 9.142857v64c0 5.028571-4.114286 9.142857-9.142857 9.142857z m-379.428571 0h-64c-5.028571 0-9.142857-4.114286-9.142858-9.142857v-64c0-5.028571 4.114286-9.142857 9.142858-9.142857h64c5.028571 0 9.142857 4.114286 9.142857 9.142857v64c0 5.028571-4.114286 9.142857-9.142857 9.142857z m0-379.428572h-64c-5.028571 0-9.142857-4.114286-9.142858-9.142857v-64c0-5.028571 4.114286-9.142857 9.142858-9.142857h64c5.028571 0 9.142857 4.114286 9.142857 9.142857v64c0 5.028571-4.114286 9.142857-9.142857 9.142857z m379.428571 0h-64c-5.028571 0-9.142857-4.114286-9.142857-9.142857v-64c0-5.028571 4.114286-9.142857 9.142857-9.142857h64c5.028571 0 9.142857 4.114286 9.142857 9.142857v64c0 5.028571-4.114286 9.142857-9.142857 9.142857z m0-189.714285h-64c-5.028571 0-9.142857-4.114286-9.142857-9.142857v-64c0-5.028571 4.114286-9.142857 9.142857-9.142858h64c5.028571 0 9.142857 4.114286 9.142857 9.142858v64c0 5.028571-4.114286 9.142857-9.142857 9.142857z m0 379.428571h-64c-5.028571 0-9.142857-4.114286-9.142857-9.142857v-64c0-5.028571 4.114286-9.142857 9.142857-9.142857h64c5.028571 0 9.142857 4.114286 9.142857 9.142857v64c0 5.028571-4.114286 9.142857-9.142857 9.142857zM164.571429 45.714286h-64c-5.028571 0-9.142857-4.114286-9.142858-9.142857v-64c0-5.028571 4.114286-9.142857 9.142858-9.142858h64c5.028571 0 9.142857 4.114286 9.142857 9.142858v64c0 5.028571-4.114286 9.142857-9.142857 9.142857z m0 379.428571h-64c-5.028571 0-9.142857-4.114286-9.142858-9.142857v-64c0-5.028571 4.114286-9.142857 9.142858-9.142857h64c5.028571 0 9.142857 4.114286 9.142857 9.142857v64c0 5.028571-4.114286 9.142857-9.142857 9.142857z m569.142857-379.428571h-64c-5.028571 0-9.142857-4.114286-9.142857-9.142857v-64c0-5.028571 4.114286-9.142857 9.142857-9.142858h64c5.028571 0 9.142857 4.114286 9.142857 9.142858v64c0 5.028571-4.114286 9.142857-9.142857 9.142857z m0 379.428571h-64c-5.028571 0-9.142857-4.114286-9.142857-9.142857v-64c0-5.028571 4.114286-9.142857 9.142857-9.142857h64c5.028571 0 9.142857 4.114286 9.142857 9.142857v64c0 5.028571-4.114286 9.142857-9.142857 9.142857zM354.285714 45.714286h-64c-5.028571 0-9.142857-4.114286-9.142857-9.142857v-64c0-5.028571 4.114286-9.142857 9.142857-9.142858h64c5.028571 0 9.142857 4.114286 9.142857 9.142858v64c0 5.028571-4.114286 9.142857-9.142857 9.142857z m0 379.428571h-64c-5.028571 0-9.142857-4.114286-9.142857-9.142857v-64c0-5.028571 4.114286-9.142857 9.142857-9.142857h64c5.028571 0 9.142857 4.114286 9.142857 9.142857v64c0 5.028571-4.114286 9.142857-9.142857 9.142857z"  horiz-adv-x="1024" />

    
    <glyph glyph-name="border-horizontal" unicode="&#59166;" d="M544 804.571429h-64c-5.028571 0-9.142857-4.114286-9.142857-9.142858v-822.857142c0-5.028571 4.114286-9.142857 9.142857-9.142858h64c5.028571 0 9.142857 4.114286 9.142857 9.142858V795.428571c0 5.028571-4.114286 9.142857-9.142857 9.142858z m-189.714286 0h-64c-5.028571 0-9.142857-4.114286-9.142857-9.142858v-64c0-5.028571 4.114286-9.142857 9.142857-9.142857h64c5.028571 0 9.142857 4.114286 9.142857 9.142857v64c0 5.028571-4.114286 9.142857-9.142857 9.142858z m569.142857 0h-64c-5.028571 0-9.142857-4.114286-9.142857-9.142858v-64c0-5.028571 4.114286-9.142857 9.142857-9.142857h64c5.028571 0 9.142857 4.114286 9.142858 9.142857v64c0 5.028571-4.114286 9.142857-9.142858 9.142858z m-758.857142 0h-64c-5.028571 0-9.142857-4.114286-9.142858-9.142858v-64c0-5.028571 4.114286-9.142857 9.142858-9.142857h64c5.028571 0 9.142857 4.114286 9.142857 9.142857v64c0 5.028571-4.114286 9.142857-9.142857 9.142858z m569.142857 0h-64c-5.028571 0-9.142857-4.114286-9.142857-9.142858v-64c0-5.028571 4.114286-9.142857 9.142857-9.142857h64c5.028571 0 9.142857 4.114286 9.142857 9.142857v64c0 5.028571-4.114286 9.142857-9.142857 9.142858zM164.571429 614.857143h-64c-5.028571 0-9.142857-4.114286-9.142858-9.142857v-64c0-5.028571 4.114286-9.142857 9.142858-9.142857h64c5.028571 0 9.142857 4.114286 9.142857 9.142857v64c0 5.028571-4.114286 9.142857-9.142857 9.142857z m758.857142 0h-64c-5.028571 0-9.142857-4.114286-9.142857-9.142857v-64c0-5.028571 4.114286-9.142857 9.142857-9.142857h64c5.028571 0 9.142857 4.114286 9.142858 9.142857v64c0 5.028571-4.114286 9.142857-9.142858 9.142857z m0-379.428572h-64c-5.028571 0-9.142857-4.114286-9.142857-9.142857v-64c0-5.028571 4.114286-9.142857 9.142857-9.142857h64c5.028571 0 9.142857 4.114286 9.142858 9.142857v64c0 5.028571-4.114286 9.142857-9.142858 9.142857z m-758.857142 0h-64c-5.028571 0-9.142857-4.114286-9.142858-9.142857v-64c0-5.028571 4.114286-9.142857 9.142858-9.142857h64c5.028571 0 9.142857 4.114286 9.142857 9.142857v64c0 5.028571-4.114286 9.142857-9.142857 9.142857z m0-189.714285h-64c-5.028571 0-9.142857-4.114286-9.142858-9.142857v-64c0-5.028571 4.114286-9.142857 9.142858-9.142858h64c5.028571 0 9.142857 4.114286 9.142857 9.142858v64c0 5.028571-4.114286 9.142857-9.142857 9.142857z m0 379.428571h-64c-5.028571 0-9.142857-4.114286-9.142858-9.142857v-64c0-5.028571 4.114286-9.142857 9.142858-9.142857h64c5.028571 0 9.142857 4.114286 9.142857 9.142857v64c0 5.028571-4.114286 9.142857-9.142857 9.142857z m758.857142-379.428571h-64c-5.028571 0-9.142857-4.114286-9.142857-9.142857v-64c0-5.028571 4.114286-9.142857 9.142857-9.142858h64c5.028571 0 9.142857 4.114286 9.142858 9.142858v64c0 5.028571-4.114286 9.142857-9.142858 9.142857z m0 379.428571h-64c-5.028571 0-9.142857-4.114286-9.142857-9.142857v-64c0-5.028571 4.114286-9.142857 9.142857-9.142857h64c5.028571 0 9.142857 4.114286 9.142858 9.142857v64c0 5.028571-4.114286 9.142857-9.142858 9.142857zM354.285714 45.714286h-64c-5.028571 0-9.142857-4.114286-9.142857-9.142857v-64c0-5.028571 4.114286-9.142857 9.142857-9.142858h64c5.028571 0 9.142857 4.114286 9.142857 9.142858v64c0 5.028571-4.114286 9.142857-9.142857 9.142857z m0 379.428571h-64c-5.028571 0-9.142857-4.114286-9.142857-9.142857v-64c0-5.028571 4.114286-9.142857 9.142857-9.142857h64c5.028571 0 9.142857 4.114286 9.142857 9.142857v64c0 5.028571-4.114286 9.142857-9.142857 9.142857z m379.428572-379.428571h-64c-5.028571 0-9.142857-4.114286-9.142857-9.142857v-64c0-5.028571 4.114286-9.142857 9.142857-9.142858h64c5.028571 0 9.142857 4.114286 9.142857 9.142858v64c0 5.028571-4.114286 9.142857-9.142857 9.142857z m0 379.428571h-64c-5.028571 0-9.142857-4.114286-9.142857-9.142857v-64c0-5.028571 4.114286-9.142857 9.142857-9.142857h64c5.028571 0 9.142857 4.114286 9.142857 9.142857v64c0 5.028571-4.114286 9.142857-9.142857 9.142857z"  horiz-adv-x="1024" />

    
    <glyph glyph-name="box-plot" unicode="&#59171;" d="M1014.857143 713.142857h-59.428572c-5.028571 0-9.142857-4.114286-9.142857-9.142857v-283.428571h-105.142857V621.714286c0 5.028571-4.114286 9.142857-9.142857 9.142857H192c-5.028571 0-9.142857-4.114286-9.142857-9.142857v-201.142857h-105.142857V704c0 5.028571-4.114286 9.142857-9.142857 9.142857H9.142857c-5.028571 0-9.142857-4.114286-9.142857-9.142857v-640c0-5.028571 4.114286-9.142857 9.142857-9.142857h59.428572c5.028571 0 9.142857 4.114286 9.142857 9.142857V342.857143h105.142857v-196.571429c0-5.028571 4.114286-9.142857 9.142857-9.142857h640c5.028571 0 9.142857 4.114286 9.142857 9.142857V342.857143h105.142857v-278.857143c0-5.028571 4.114286-9.142857 9.142857-9.142857h59.428572c5.028571 0 9.142857 4.114286 9.142857 9.142857V704c0 5.028571-4.114286 9.142857-9.142857 9.142857zM265.142857 548.571429h100.571429v-329.142858h-100.571429V548.571429z m493.714286-329.142858H438.857143V548.571429h320v-329.142858z"  horiz-adv-x="1024" />

    
    <glyph glyph-name="cloud" unicode="&#59184;" d="M854.171429 490.628571C801.828571 628.685714 668.457143 726.857143 512.228571 726.857143S222.628571 628.8 170.285714 490.742857C72.342857 465.028571 0 375.885714 0 269.714286c0-126.285714 102.285714-228.571429 228.457143-228.571429h567.085714C921.714286 41.142857 1024 143.428571 1024 269.714286c0 105.942857-72.114286 195.085714-169.828571 220.914285z m41.485714-321.142857a140.651429 140.651429 0 0 0-100.114286-41.485714H228.457143c-37.828571 0-73.371429 14.742857-100.114286 41.485714A140.914286 140.914286 0 0 0 86.857143 269.714286c0 32 10.4 62.057143 29.942857 87.2a143.657143 143.657143 0 0 0 75.542857 49.942857l43.314286 11.314286 15.885714 41.828571c9.828571 26.057143 23.542857 50.4 40.8 72.457143a280.685714 280.685714 0 0 0 59.885714 57.028571c46.971429 33.028571 102.285714 50.514286 160 50.514286s113.028571-17.485714 160-50.514286c22.742857-16 42.857143-35.2 59.885715-57.028571 17.257143-22.057143 30.971429-46.514286 40.8-72.457143l15.771428-41.714286 43.2-11.428571c62.057143-16.571429 105.257143-72.914286 105.257143-137.142857 0-37.828571-14.742857-73.485714-41.485714-100.228572z"  horiz-adv-x="1024" />

    
    <glyph glyph-name="border-bottom" unicode="&#59167;" d="M923.428571 45.714286H100.571429c-5.028571 0-9.142857-4.114286-9.142858-9.142857v-64c0-5.028571 4.114286-9.142857 9.142858-9.142858h822.857142c5.028571 0 9.142857 4.114286 9.142858 9.142858v64c0 5.028571-4.114286 9.142857-9.142858 9.142857z m-822.857142 107.428571h64c5.028571 0 9.142857 4.114286 9.142857 9.142857v64c0 5.028571-4.114286 9.142857-9.142857 9.142857h-64c-5.028571 0-9.142857-4.114286-9.142858-9.142857v-64c0-5.028571 4.114286-9.142857 9.142858-9.142857z m0 569.142857h64c5.028571 0 9.142857 4.114286 9.142857 9.142857v64c0 5.028571-4.114286 9.142857-9.142857 9.142858h-64c-5.028571 0-9.142857-4.114286-9.142858-9.142858v-64c0-5.028571 4.114286-9.142857 9.142858-9.142857z m0-379.428571h64c5.028571 0 9.142857 4.114286 9.142857 9.142857v64c0 5.028571-4.114286 9.142857-9.142857 9.142857h-64c-5.028571 0-9.142857-4.114286-9.142858-9.142857v-64c0-5.028571 4.114286-9.142857 9.142858-9.142857z m0 189.714286h64c5.028571 0 9.142857 4.114286 9.142857 9.142857v64c0 5.028571-4.114286 9.142857-9.142857 9.142857h-64c-5.028571 0-9.142857-4.114286-9.142858-9.142857v-64c0-5.028571 4.114286-9.142857 9.142858-9.142857z m189.714285-189.714286h64c5.028571 0 9.142857 4.114286 9.142857 9.142857v64c0 5.028571-4.114286 9.142857-9.142857 9.142857h-64c-5.028571 0-9.142857-4.114286-9.142857-9.142857v-64c0-5.028571 4.114286-9.142857 9.142857-9.142857z m0 379.428571h64c5.028571 0 9.142857 4.114286 9.142857 9.142857v64c0 5.028571-4.114286 9.142857-9.142857 9.142858h-64c-5.028571 0-9.142857-4.114286-9.142857-9.142858v-64c0-5.028571 4.114286-9.142857 9.142857-9.142857z m379.428572 0h64c5.028571 0 9.142857 4.114286 9.142857 9.142857v64c0 5.028571-4.114286 9.142857-9.142857 9.142858h-64c-5.028571 0-9.142857-4.114286-9.142857-9.142858v-64c0-5.028571 4.114286-9.142857 9.142857-9.142857z m0-379.428571h64c5.028571 0 9.142857 4.114286 9.142857 9.142857v64c0 5.028571-4.114286 9.142857-9.142857 9.142857h-64c-5.028571 0-9.142857-4.114286-9.142857-9.142857v-64c0-5.028571 4.114286-9.142857 9.142857-9.142857z m253.714285 82.285714h-64c-5.028571 0-9.142857-4.114286-9.142857-9.142857v-64c0-5.028571 4.114286-9.142857 9.142857-9.142857h64c5.028571 0 9.142857 4.114286 9.142858 9.142857v64c0 5.028571-4.114286 9.142857-9.142858 9.142857z m-443.428571-82.285714h64c5.028571 0 9.142857 4.114286 9.142857 9.142857v64c0 5.028571-4.114286 9.142857-9.142857 9.142857h-64c-5.028571 0-9.142857-4.114286-9.142857-9.142857v-64c0-5.028571 4.114286-9.142857 9.142857-9.142857z m443.428571 461.714286h-64c-5.028571 0-9.142857-4.114286-9.142857-9.142858v-64c0-5.028571 4.114286-9.142857 9.142857-9.142857h64c5.028571 0 9.142857 4.114286 9.142858 9.142857v64c0 5.028571-4.114286 9.142857-9.142858 9.142858z m-443.428571-82.285715h64c5.028571 0 9.142857 4.114286 9.142857 9.142857v64c0 5.028571-4.114286 9.142857-9.142857 9.142858h-64c-5.028571 0-9.142857-4.114286-9.142857-9.142858v-64c0-5.028571 4.114286-9.142857 9.142857-9.142857z m443.428571-486.857143h-64c-5.028571 0-9.142857-4.114286-9.142857-9.142857v-64c0-5.028571 4.114286-9.142857 9.142857-9.142857h64c5.028571 0 9.142857 4.114286 9.142858 9.142857v64c0 5.028571-4.114286 9.142857-9.142858 9.142857z m-443.428571-82.285714h64c5.028571 0 9.142857 4.114286 9.142857 9.142857v64c0 5.028571-4.114286 9.142857-9.142857 9.142857h-64c-5.028571 0-9.142857-4.114286-9.142857-9.142857v-64c0-5.028571 4.114286-9.142857 9.142857-9.142857z m443.428571 461.714286h-64c-5.028571 0-9.142857-4.114286-9.142857-9.142857v-64c0-5.028571 4.114286-9.142857 9.142857-9.142857h64c5.028571 0 9.142857 4.114286 9.142858 9.142857v64c0 5.028571-4.114286 9.142857-9.142858 9.142857z m-443.428571-82.285714h64c5.028571 0 9.142857 4.114286 9.142857 9.142857v64c0 5.028571-4.114286 9.142857-9.142857 9.142857h-64c-5.028571 0-9.142857-4.114286-9.142857-9.142857v-64c0-5.028571 4.114286-9.142857 9.142857-9.142857z"  horiz-adv-x="1024" />

    
    <glyph glyph-name="cloud-download" unicode="&#59190;" d="M640 161.942857h-84.685714V438.857143c0 5.028571-4.114286 9.142857-9.142857 9.142857h-68.571429c-5.028571 0-9.142857-4.114286-9.142857-9.142857v-276.914286H384c-7.657143 0-11.885714-8.8-7.2-14.742857l128-161.942857a9.142857 9.142857 0 0 1 14.4 0l128 161.942857c4.685714 5.942857 0.457143 14.742857-7.2 14.742857zM854.171429 550.057143C801.828571 688.114286 668.457143 786.285714 512.228571 786.285714S222.628571 688.228571 170.285714 550.171429C72.342857 524.457143 0 435.2 0 329.142857c0-126.285714 102.285714-228.571429 228.457143-228.571428H274.285714c5.028571 0 9.142857 4.114286 9.142857 9.142857v68.571428c0 5.028571-4.114286 9.142857-9.142857 9.142857h-45.828571c-38.514286 0-74.742857 15.314286-101.714286 43.085715-26.857143 27.657143-41.142857 64.914286-39.885714 103.542857 1.028571 30.171429 11.314286 58.514286 29.942857 82.4 19.085714 24.342857 45.828571 42.057143 75.542857 49.942857l43.314286 11.314286 15.885714 41.828571c9.828571 26.057143 23.542857 50.4 40.8 72.457143a280.685714 280.685714 0 0 0 59.885714 57.028571c46.971429 33.028571 102.285714 50.514286 160 50.514286s113.028571-17.485714 160-50.514286c22.742857-16 42.857143-35.2 59.885715-57.028571 17.257143-22.057143 30.971429-46.514286 40.8-72.457143l15.771428-41.714286 43.2-11.428571C893.828571 449.714286 937.142857 393.371429 937.142857 329.142857c0-37.828571-14.742857-73.485714-41.485714-100.228571a140.651429 140.651429 0 0 0-100.114286-41.485715H749.714286c-5.028571 0-9.142857-4.114286-9.142857-9.142857v-68.571428c0-5.028571 4.114286-9.142857 9.142857-9.142857h45.828571C921.714286 100.571429 1024 202.857143 1024 329.142857c0 105.942857-72.114286 195.085714-169.828571 220.914286z"  horiz-adv-x="1024" />

    
    <glyph glyph-name="border-left" unicode="&#59168;" d="M164.571429 804.571429h-64c-5.028571 0-9.142857-4.114286-9.142858-9.142858v-822.857142c0-5.028571 4.114286-9.142857 9.142858-9.142858h64c5.028571 0 9.142857 4.114286 9.142857 9.142858V795.428571c0 5.028571-4.114286 9.142857-9.142857 9.142858z m189.714285 0h-64c-5.028571 0-9.142857-4.114286-9.142857-9.142858v-64c0-5.028571 4.114286-9.142857 9.142857-9.142857h64c5.028571 0 9.142857 4.114286 9.142857 9.142857v64c0 5.028571-4.114286 9.142857-9.142857 9.142858z m569.142857 0h-64c-5.028571 0-9.142857-4.114286-9.142857-9.142858v-64c0-5.028571 4.114286-9.142857 9.142857-9.142857h64c5.028571 0 9.142857 4.114286 9.142858 9.142857v64c0 5.028571-4.114286 9.142857-9.142858 9.142858z m-379.428571 0h-64c-5.028571 0-9.142857-4.114286-9.142857-9.142858v-64c0-5.028571 4.114286-9.142857 9.142857-9.142857h64c5.028571 0 9.142857 4.114286 9.142857 9.142857v64c0 5.028571-4.114286 9.142857-9.142857 9.142858z m189.714286 0h-64c-5.028571 0-9.142857-4.114286-9.142857-9.142858v-64c0-5.028571 4.114286-9.142857 9.142857-9.142857h64c5.028571 0 9.142857 4.114286 9.142857 9.142857v64c0 5.028571-4.114286 9.142857-9.142857 9.142858zM544 614.857143h-64c-5.028571 0-9.142857-4.114286-9.142857-9.142857v-64c0-5.028571 4.114286-9.142857 9.142857-9.142857h64c5.028571 0 9.142857 4.114286 9.142857 9.142857v64c0 5.028571-4.114286 9.142857-9.142857 9.142857z m379.428571 0h-64c-5.028571 0-9.142857-4.114286-9.142857-9.142857v-64c0-5.028571 4.114286-9.142857 9.142857-9.142857h64c5.028571 0 9.142857 4.114286 9.142858 9.142857v64c0 5.028571-4.114286 9.142857-9.142858 9.142857z m0-379.428572h-64c-5.028571 0-9.142857-4.114286-9.142857-9.142857v-64c0-5.028571 4.114286-9.142857 9.142857-9.142857h64c5.028571 0 9.142857 4.114286 9.142858 9.142857v64c0 5.028571-4.114286 9.142857-9.142858 9.142857z m-379.428571 0h-64c-5.028571 0-9.142857-4.114286-9.142857-9.142857v-64c0-5.028571 4.114286-9.142857 9.142857-9.142857h64c5.028571 0 9.142857 4.114286 9.142857 9.142857v64c0 5.028571-4.114286 9.142857-9.142857 9.142857z m0-189.714285h-64c-5.028571 0-9.142857-4.114286-9.142857-9.142857v-64c0-5.028571 4.114286-9.142857 9.142857-9.142858h64c5.028571 0 9.142857 4.114286 9.142857 9.142858v64c0 5.028571-4.114286 9.142857-9.142857 9.142857z m0 379.428571h-64c-5.028571 0-9.142857-4.114286-9.142857-9.142857v-64c0-5.028571 4.114286-9.142857 9.142857-9.142857h64c5.028571 0 9.142857 4.114286 9.142857 9.142857v64c0 5.028571-4.114286 9.142857-9.142857 9.142857z m379.428571-379.428571h-64c-5.028571 0-9.142857-4.114286-9.142857-9.142857v-64c0-5.028571 4.114286-9.142857 9.142857-9.142858h64c5.028571 0 9.142857 4.114286 9.142858 9.142858v64c0 5.028571-4.114286 9.142857-9.142858 9.142857z m0 379.428571h-64c-5.028571 0-9.142857-4.114286-9.142857-9.142857v-64c0-5.028571 4.114286-9.142857 9.142857-9.142857h64c5.028571 0 9.142857 4.114286 9.142858 9.142857v64c0 5.028571-4.114286 9.142857-9.142858 9.142857zM354.285714 45.714286h-64c-5.028571 0-9.142857-4.114286-9.142857-9.142857v-64c0-5.028571 4.114286-9.142857 9.142857-9.142858h64c5.028571 0 9.142857 4.114286 9.142857 9.142858v64c0 5.028571-4.114286 9.142857-9.142857 9.142857z m0 379.428571h-64c-5.028571 0-9.142857-4.114286-9.142857-9.142857v-64c0-5.028571 4.114286-9.142857 9.142857-9.142857h64c5.028571 0 9.142857 4.114286 9.142857 9.142857v64c0 5.028571-4.114286 9.142857-9.142857 9.142857z m379.428572-379.428571h-64c-5.028571 0-9.142857-4.114286-9.142857-9.142857v-64c0-5.028571 4.114286-9.142857 9.142857-9.142858h64c5.028571 0 9.142857 4.114286 9.142857 9.142858v64c0 5.028571-4.114286 9.142857-9.142857 9.142857z m0 379.428571h-64c-5.028571 0-9.142857-4.114286-9.142857-9.142857v-64c0-5.028571 4.114286-9.142857 9.142857-9.142857h64c5.028571 0 9.142857 4.114286 9.142857 9.142857v64c0 5.028571-4.114286 9.142857-9.142857 9.142857z"  horiz-adv-x="1024" />

    
    <glyph glyph-name="colum-height" unicode="&#59172;" d="M886.857143 13.714286H137.142857c-5.028571 0-9.142857-4.114286-9.142857-9.142857v-68.571429c0-5.028571 4.114286-9.142857 9.142857-9.142857h749.714286c5.028571 0 9.142857 4.114286 9.142857 9.142857v68.571429c0 5.028571-4.114286 9.142857-9.142857 9.142857z m0 827.428571H137.142857c-5.028571 0-9.142857-4.114286-9.142857-9.142857v-68.571429c0-5.028571 4.114286-9.142857 9.142857-9.142857h749.714286c5.028571 0 9.142857 4.114286 9.142857 9.142857v68.571429c0 5.028571-4.114286 9.142857-9.142857 9.142857zM624.914286 537.142857c6.857143 0 10.742857 8 6.514285 13.371429L516.228571 696.342857a8.16 8.16 0 0 1-12.914285 0L388.114286 550.514286a8.262857 8.262857 0 0 1 6.514285-13.371429H470.857143v-306.285714h-71.771429c-6.857143 0-10.742857-8-6.514285-13.371429l115.2-145.714285c3.314286-4.228571 9.714286-4.228571 12.914285 0l115.2 145.714285c4.228571 5.371429 0.457143 13.371429-6.514285 13.371429H553.142857V537.142857h71.771429z"  horiz-adv-x="1024" />

    
    <glyph glyph-name="close-square" unicode="&#59173;" d="M331.428571 202.285714h67.314286c5.371429 0 10.514286 2.4 14.057143 6.514286L512 327.085714l99.2-118.285714c3.428571-4.114286 8.571429-6.514286 14.057143-6.514286H692.571429c7.771429 0 12 9.028571 6.971428 14.971429L559.771429 384l139.885714 166.742857c5.028571 5.942857 0.8 14.971429-6.971429 14.971429h-67.314285c-5.371429 0-10.514286-2.4-14.057143-6.514286L512 440.914286l-99.2 118.285714c-3.428571 4.114286-8.571429 6.514286-14.057143 6.514286H331.428571c-7.771429 0-12-9.028571-6.971428-14.971429L464.228571 384 324.457143 217.257143A9.085714 9.085714 0 0 1 331.428571 202.285714zM932.571429 841.142857H91.428571c-20.228571 0-36.571429-16.342857-36.571428-36.571428v-841.142858c0-20.228571 16.342857-36.571429 36.571428-36.571428h841.142858c20.228571 0 36.571429 16.342857 36.571428 36.571428V804.571429c0 20.228571-16.342857 36.571429-36.571428 36.571428z m-45.714286-832H137.142857V758.857143h749.714286v-749.714286z"  horiz-adv-x="1024" />

    
    <glyph glyph-name="cluster" unicode="&#59193;" d="M941.714286 192h-61.714286V352H550.857143v105.142857h272c10.057143 0 18.285714 8.228571 18.285714 18.285714V777.142857c0 10.057143-8.228571 18.285714-18.285714 18.285714H201.142857c-10.057143 0-18.285714-8.228571-18.285714-18.285714v-301.714286c0-10.057143 8.228571-18.285714 18.285714-18.285714h272v-105.142857H144v-160h-61.714286c-5.028571 0-9.142857-4.114286-9.142857-9.142857v-201.142857c0-5.028571 4.114286-9.142857 9.142857-9.142857h201.142857c5.028571 0 9.142857 4.114286 9.142858 9.142857V182.857143c0 5.028571-4.114286 9.142857-9.142858 9.142857h-61.714285v82.285714h251.428571v-82.285714h-61.714286c-5.028571 0-9.142857-4.114286-9.142857-9.142857v-201.142857c0-5.028571 4.114286-9.142857 9.142857-9.142857h201.142858c5.028571 0 9.142857 4.114286 9.142857 9.142857V182.857143c0 5.028571-4.114286 9.142857-9.142857 9.142857h-61.714286v82.285714h251.428571v-82.285714h-61.714285c-5.028571 0-9.142857-4.114286-9.142858-9.142857v-201.142857c0-5.028571 4.114286-9.142857 9.142858-9.142857h201.142857c5.028571 0 9.142857 4.114286 9.142857 9.142857V182.857143c0 5.028571-4.114286 9.142857-9.142857 9.142857zM219.428571 48.8c0-1.714286-1.371429-3.085714-3.085714-3.085714h-67.085714c-1.714286 0-3.085714 1.371429-3.085714 3.085714v67.085714c0 1.714286 1.371429 3.085714 3.085714 3.085715h67.085714c1.714286 0 3.085714-1.371429 3.085714-3.085715v-67.085714z m329.142858 0c0-1.714286-1.371429-3.085714-3.085715-3.085714h-67.085714c-1.714286 0-3.085714 1.371429-3.085714 3.085714v67.085714c0 1.714286 1.371429 3.085714 3.085714 3.085715h67.085714c1.714286 0 3.085714-1.371429 3.085715-3.085715v-67.085714zM256 530.285714V722.285714h512v-192H256z m621.714286-481.485714c0-1.714286-1.371429-3.085714-3.085715-3.085714h-67.085714c-1.714286 0-3.085714 1.371429-3.085714 3.085714v67.085714c0 1.714286 1.371429 3.085714 3.085714 3.085715h67.085714c1.714286 0 3.085714-1.371429 3.085715-3.085715v-67.085714zM338.285714 626.285714a45.714286 45.714286 0 1 1 91.428572 0 45.714286 45.714286 0 1 1-91.428572 0z"  horiz-adv-x="1024" />

    
    <glyph glyph-name="dash" unicode="&#59177;" d="M54.857143 425.142857h182.857143v-82.285714H54.857143z m365.714286 0h182.857142v-82.285714H420.571429z m365.714285 0h182.857143v-82.285714H786.285714z"  horiz-adv-x="1024" />

    
    <glyph glyph-name="diff" unicode="&#59178;" d="M470.857143 513.028571c0 4.457143-3.542857 8.114286-8 8.114286h-48c-4.342857 0-8-3.657143-8-8.114286V416h-96.571429c-4.685714 0-8.571429-3.542857-8.571428-8v-48c0-4.342857 3.885714-8 8.571428-8H406.857143v-97.028571c0-4.457143 3.657143-8.114286 8-8.114286h48c4.457143 0 8 3.657143 8 8.114286V352h96.571428c4.685714 0 8.571429 3.657143 8.571429 8v48c0 4.457143-3.885714 8-8.571429 8H470.857143v97.028571zM567.428571 164.571429h-257.142857c-4.685714 0-8.571429-3.657143-8.571428-8v-48c0-4.342857 3.885714-8 8.571428-8h257.142857c4.685714 0 8.571429 3.657143 8.571429 8v48c0 4.342857-3.885714 8-8.571429 8z m-8.114285 574.4c-6.857143 6.857143-16.114286 10.742857-25.828572 10.742857H146.285714c-20.228571 0-36.571429-16.342857-36.571428-36.571429v-804.571428c0-20.228571 16.342857-36.571429 36.571428-36.571429h585.142857c20.228571 0 36.571429 16.342857 36.571429 36.571429V515.085714c0 9.714286-3.885714 18.971429-10.742857 25.828572L559.314286 738.971429zM685.714286-45.714286H192V667.428571h322.514286L685.714286 496.228571V-45.714286z m217.371428 664.457143L625.485714 885.828571c-6.857143 6.514286-15.885714 10.171429-25.371428 10.171429H265.142857c-5.028571 0-9.142857-4.114286-9.142857-9.142857v-64c0-5.028571 4.114286-9.142857 9.142857-9.142857h316.571429l250.285714-240.685715V27.428571c0-5.028571 4.114286-9.142857 9.142857-9.142857h64c5.028571 0 9.142857 4.114286 9.142857 9.142857V592.457143c0 9.942857-4 19.428571-11.2 26.285714z"  horiz-adv-x="1024" />

    
    <glyph glyph-name="copy" unicode="&#59179;" d="M877.714286 896H265.142857c-5.028571 0-9.142857-4.114286-9.142857-9.142857v-64c0-5.028571 4.114286-9.142857 9.142857-9.142857h566.857143v-786.285715c0-5.028571 4.114286-9.142857 9.142857-9.142857h64c5.028571 0 9.142857 4.114286 9.142857 9.142857V859.428571c0 20.228571-16.342857 36.571429-36.571428 36.571429zM731.428571 749.714286H146.285714c-20.228571 0-36.571429-16.342857-36.571428-36.571429v-606.514286c0-9.714286 3.885714-18.971429 10.742857-25.828571l198.057143-198.057143c2.514286-2.514286 5.371429-4.571429 8.457143-6.285714v-2.171429h4.8c4-1.485714 8.228571-2.285714 12.571428-2.285714H731.428571c20.228571 0 36.571429 16.342857 36.571429 36.571429V713.142857c0 20.228571-16.342857 36.571429-36.571429 36.571429zM326.857143-9.371429L228.457143 89.142857H326.857143v-98.514286zM685.714286-45.714286H400V116.571429c0 25.257143-20.457143 45.714286-45.714286 45.714285H192V667.428571h493.714286v-713.142857z"  horiz-adv-x="1024" />

    
    <glyph glyph-name="double-left" unicode="&#59174;" d="M238.742857 384l303.314286 387.542857c4.685714 5.942857 0.457143 14.742857-7.2 14.742857h-88.342857c-5.6 0-10.971429-2.628571-14.4-6.971428L140.342857 406.514286a36.56 36.56 0 0 1 0-45.142857l291.771429-372.685715c3.428571-4.457143 8.8-6.971429 14.4-6.971428H534.857143c7.657143 0 11.885714 8.8 7.2 14.742857L238.742857 384z m347.428572 0l303.314285 387.542857c4.685714 5.942857 0.457143 14.742857-7.2 14.742857h-88.342857c-5.6 0-10.971429-2.628571-14.4-6.971428L487.771429 406.514286a36.56 36.56 0 0 1 0-45.142857l291.771428-372.685715c3.428571-4.457143 8.8-6.971429 14.4-6.971428H882.285714c7.657143 0 11.885714 8.8 7.2 14.742857L586.171429 384z"  horiz-adv-x="1024" />

    
    <glyph glyph-name="double-right" unicode="&#59175;" d="M536.228571 406.514286L244.457143 779.314286c-3.428571 4.457143-8.8 6.971429-14.4 6.971428H141.714286c-7.657143 0-11.885714-8.8-7.2-14.742857L437.828571 384 134.514286-3.542857A9.12 9.12 0 0 1 141.714286-18.285714h88.342857c5.6 0 10.971429 2.628571 14.4 6.971428l291.771428 372.685715c10.4 13.371429 10.4 31.885714 0 45.142857z m347.428572 0L591.885714 779.314286c-3.428571 4.457143-8.8 6.971429-14.4 6.971428H489.142857c-7.657143 0-11.885714-8.8-7.2-14.742857L785.257143 384 481.942857-3.542857A9.12 9.12 0 0 1 489.142857-18.285714h88.342857c5.6 0 10.971429 2.628571 14.4 6.971428l291.771429 372.685715c10.4 13.371429 10.4 31.885714 0 45.142857z"  horiz-adv-x="1024" />

    
    <glyph glyph-name="delete" unicode="&#59180;" d="M338.285714 758.857143h-9.142857c5.028571 0 9.142857 4.114286 9.142857 9.142857v-9.142857h347.428572v9.142857c0-5.028571 4.114286-9.142857 9.142857-9.142857h-9.142857v-82.285714h82.285714v91.428571c0 40.342857-32.8 73.142857-73.142857 73.142857H329.142857c-40.342857 0-73.142857-32.8-73.142857-73.142857v-91.428571h82.285714v82.285714z m576-82.285714H109.714286c-20.228571 0-36.571429-16.342857-36.571429-36.571429v-36.571429c0-5.028571 4.114286-9.142857 9.142857-9.142857h69.028572l28.228571-597.714285c1.828571-38.971429 34.057143-69.714286 73.028572-69.714286h518.857142c39.085714 0 71.2 30.628571 73.028572 69.714286l28.228571 597.714285H941.714286c5.028571 0 9.142857 4.114286 9.142857 9.142857v36.571429c0 20.228571-16.342857 36.571429-36.571429 36.571429zM762.628571 9.142857H261.371429l-27.657143 585.142857h556.571428l-27.657143-585.142857z"  horiz-adv-x="1024" />

    
    <glyph glyph-name="down-square" unicode="&#59176;" d="M504.571429 216.342857c3.657143-5.028571 11.085714-5.028571 14.742857 0l203.428571 281.142857c4.342857 6.057143 0 14.514286-7.428571 14.514286H661.714286c-11.657143 0-22.742857-5.6-29.6-15.085714L512 330.742857 391.771429 496.914286c-6.857143 9.485714-17.828571 15.085714-29.6 15.085714H308.571429c-7.428571 0-11.771429-8.457143-7.428572-14.514286l203.428572-281.142857zM932.571429 841.142857H91.428571c-20.228571 0-36.571429-16.342857-36.571428-36.571428v-841.142858c0-20.228571 16.342857-36.571429 36.571428-36.571428h841.142858c20.228571 0 36.571429 16.342857 36.571428 36.571428V804.571429c0 20.228571-16.342857 36.571429-36.571428 36.571428z m-45.714286-832H137.142857V758.857143h749.714286v-749.714286z"  horiz-adv-x="1024" />

    
    <glyph glyph-name="desktop" unicode="&#59196;" d="M987.428571 809.142857H36.571429c-20.228571 0-36.571429-16.342857-36.571429-36.571428v-566.857143c0-20.228571 16.342857-36.571429 36.571429-36.571429h434.285714v-128H274.285714c-10.057143 0-18.285714-8.228571-18.285714-18.285714v-54.857143c0-5.028571 4.114286-9.142857 9.142857-9.142857h493.714286c5.028571 0 9.142857 4.114286 9.142857 9.142857v54.857143c0 10.057143-8.228571 18.285714-18.285714 18.285714H553.142857V169.142857h434.285714c20.228571 0 36.571429 16.342857 36.571429 36.571429V772.571429c0 20.228571-16.342857 36.571429-36.571429 36.571428z m-45.714285-557.714286H82.285714V726.857143h859.428572v-475.428572z"  horiz-adv-x="1024" />

    
    <glyph glyph-name="dot-chart" unicode="&#59181;" d="M941.714286 64H155.428571V777.142857c0 5.028571-4.114286 9.142857-9.142857 9.142857h-64c-5.028571 0-9.142857-4.114286-9.142857-9.142857v-786.285714c0-5.028571 4.114286-9.142857 9.142857-9.142857h859.428572c5.028571 0 9.142857 4.114286 9.142857 9.142857v64c0 5.028571-4.114286 9.142857-9.142857 9.142857zM256 278.857143a73.142857 73.142857 0 1 1 146.285714 0 73.142857 73.142857 0 1 1-146.285714 0z m134.857143 256a54.857143 54.857143 0 1 1 109.714286 0 54.857143 54.857143 0 1 1-109.714286 0z m180.571428-260.571429a109.714286 109.714286 0 1 1 219.428572 0 109.714286 109.714286 0 1 1-219.428572 0z m169.142858 358.857143a64 64 0 1 1 128 0 64 64 0 1 1-128 0z"  horiz-adv-x="1024" />

    
    <glyph glyph-name="ellipsis" unicode="&#59197;" d="M128 385.142857a64 64 0 1 1 128 0 64 64 0 1 1-128 0z m320 0a64 64 0 1 1 128 0 64 64 0 1 1-128 0z m320 0a64 64 0 1 1 128 0 64 64 0 1 1-128 0z"  horiz-adv-x="1024" />

    
    <glyph glyph-name="export" unicode="&#59215;" d="M942.057143 103.542857h-61.485714c-4.8 0-8.8-4-8.8-8.8v-70.628571H152.114286V743.885714h719.771428v-70.628571c0-4.8 4-8.8 8.8-8.8h61.485715c4.8 0 8.8 3.885714 8.8 8.8V787.771429c0 19.428571-15.657143 35.085714-35.085715 35.085714H108.228571c-19.428571 0-35.085714-15.657143-35.085714-35.085714v-807.542858c0-19.428571 15.657143-35.085714 35.085714-35.085714h807.542858c19.428571 0 35.085714 15.657143 35.085714 35.085714V94.742857c0 4.914286-4 8.8-8.8 8.8z m21.257143 287.657143L801.142857 519.2c-6.057143 4.8-14.857143 0.457143-14.857143-7.2v-86.857143H427.428571c-5.028571 0-9.142857-4.114286-9.142857-9.142857v-64c0-5.028571 4.114286-9.142857 9.142857-9.142857h358.857143v-86.857143c0-7.657143 8.914286-12 14.857143-7.2l162.171429 128a9.142857 9.142857 0 0 1 0 14.4z"  horiz-adv-x="1024" />

    
    <glyph glyph-name="filter" unicode="&#59218;" d="M932.685714 793.142857H91.314286c-28 0-45.485714-30.514286-31.428572-54.857143L325.714286 286.4V11.428571c0-20.228571 16.228571-36.571429 36.342857-36.571428h299.885714c20.114286 0 36.342857 16.342857 36.342857 36.571428V286.4L964.228571 738.285714c13.942857 24.342857-3.542857 54.857143-31.542857 54.857143zM616.457143 57.142857H407.542857V235.428571h209.028572v-178.285714z m10.971428 270.4l-10.857142-18.971428h-209.142858l-10.857142 18.971428L169.942857 710.857143h684.114286L627.428571 327.542857z"  horiz-adv-x="1024" />

    
    </font>
</defs>
</svg>
